<svg xmlns="http://www.w3.org/2000/svg" viewBox="0 0 750 500"><g id="freepik--background-complete--inject-123"><circle cx="128.56" cy="106.9" r="31.02" transform="translate(-5.78 7.36) rotate(-3.21)" style="fill:#ebebeb;opacity:0.19"></circle><path d="M151.56,112a23,23,0,1,1-23-23A23,23,0,0,1,151.56,112Z" style="fill:#ebebeb;opacity:0.19"></path><polygon points="162.43 112 141 148.52 116.13 148.52 94.69 112 162.43 112" style="fill:#ebebeb"></polygon><polygon points="146.82 160.81 110.32 160.81 116.13 148.52 141 148.52 146.82 160.81" style="fill:#ebebeb"></polygon><polygon points="144.88 141.93 141.01 148.52 116.12 148.52 113.19 143.53 144.88 141.93" style="fill:#c7c7c7"></polygon><circle cx="621.44" cy="106.9" r="31.02" transform="translate(7.52 250.84) rotate(-22.96)" style="fill:#ebebeb;opacity:0.19"></circle><circle cx="621.44" cy="112" r="23" transform="translate(102.82 472.23) rotate(-45)" style="fill:#ebebeb;opacity:0.19"></circle><polygon points="655.3 112 633.87 148.52 609 148.52 587.57 112 655.3 112" style="fill:#ebebeb"></polygon><polygon points="639.7 160.81 603.19 160.81 609 148.52 633.87 148.52 639.7 160.81" style="fill:#ebebeb"></polygon><polygon points="637.75 141.93 633.88 148.52 609 148.52 606.07 143.53 637.75 141.93" style="fill:#c7c7c7"></polygon><rect x="637.96" y="383.77" width="35.16" height="11.19" transform="translate(1311.07 778.73) rotate(180)" style="fill:#ebebeb"></rect><path d="M657.57,409.07l17.7-.29,8.75-.12,8.71,0-.46.45,0-11.19.5.5-17.58-.07-8.79-.08-8.79-.11.24-.24Zm0,0-.24-11.19v-.23h.24l8.79-.1,8.79-.09,17.58-.07h.5v.5l-.05,11.19v.46h-.45l-8.87,0-8.83-.12Z" style="fill:#ebebeb"></path><path d="M564.14,197.49l17.7-.29,8.74-.12,8.71-.05-.45.46,0-11.19.49.5-17.57-.07-8.79-.08-8.79-.11.23-.24Zm0,0-.24-11.19v-.23h.25l8.79-.11,8.79-.08,17.57-.07h.51v.5l0,11.19V198h-.46l-8.86,0-8.84-.12Z" style="fill:#ebebeb"></path><path d="M583.75,211.6l17.7-.29,8.75-.12,8.71-.05-.46.46,0-11.19.5.5-17.58-.07-8.79-.08-8.79-.11.24-.24Zm0,0-.24-11.19v-.23h.24l8.79-.11,8.79-.08,17.58-.07h.5v.5l0,11.19v.46h-.45L610,212l-8.83-.12Z" style="fill:#ebebeb"></path><rect x="603.28" y="186.3" width="35.16" height="11.19" transform="translate(1241.73 383.79) rotate(180)" style="fill:#ebebeb"></rect><rect x="48.35" y="397.88" width="35.16" height="11.19" transform="translate(131.86 806.95) rotate(180)" style="fill:#ebebeb"></rect><rect x="67.96" y="52.33" width="35.16" height="11.19" transform="translate(171.08 115.85) rotate(180)" style="fill:#ebebeb"></rect><path d="M48.35,77.63l17.7-.29,8.75-.12,8.71,0-.46.46,0-11.19.5.5-17.58-.07-8.79-.08-8.79-.11.24-.24Zm0,0-.24-11.19v-.23h.24l8.79-.11L65.93,66l17.58-.07H84v.5L84,77.63v.46h-.45l-8.87,0-8.83-.12Z" style="fill:#ebebeb"></path><path d="M169.61,237.83H133.46V225.64h36.15Zm-35.15-1h34.15V226.64H134.46Z" style="fill:#ebebeb"></path><path d="M114.35,212l17.45-.3,8.83-.12,8.87,0H150V212l0,11.19v.5h-.5l-17.58-.07-8.79-.09-8.78-.11h-.25v-.23Zm0,0,.23,11.19-.23-.24,8.78-.11,8.79-.08,17.58-.07-.5.5.05-11.19.45.45-8.71,0-8.75-.12Z" style="fill:#ebebeb"></path><path d="M638,63.52l17.7-.29,8.75-.12,8.71,0-.46.45,0-11.19.5.5-17.58-.07-8.79-.08L638,52.57l.24-.24Zm0,0-.24-11.19V52.1H638l8.79-.11,8.79-.08,17.58-.07h.5v.5l0,11.19V64h-.45l-8.87,0-8.83-.12Z" style="fill:#ebebeb"></path></g><g id="freepik--Window--inject-123"><path d="M206.79,52.33V338.24H543.21V52.33ZM535.87,330.9H214.13V59.67H535.87Z" style="fill:#ebebeb"></path><rect x="214.13" y="59.67" width="321.74" height="271.23" style="fill:#a6a6a6"></rect><polygon points="267.63 224.83 268.87 227.34 271.63 227.74 269.63 229.69 270.11 232.44 267.63 231.14 265.16 232.44 265.63 229.69 263.63 227.74 266.4 227.34 267.63 224.83" style="fill:#ebebeb"></polygon><polygon points="495.81 107.29 497.05 109.8 499.82 110.2 497.81 112.15 498.29 114.9 495.81 113.6 493.34 114.9 493.81 112.15 491.81 110.2 494.58 109.8 495.81 107.29" style="fill:#ebebeb"></polygon><polygon points="334.94 155.56 336.17 158.06 338.94 158.47 336.94 160.42 337.41 163.17 334.94 161.87 332.46 163.17 332.93 160.42 330.93 158.47 333.7 158.06 334.94 155.56" style="fill:#ebebeb"></polygon><polygon points="249.23 160.81 250.47 163.32 253.24 163.72 251.23 165.67 251.71 168.42 249.23 167.12 246.76 168.42 247.23 165.67 245.23 163.72 248 163.32 249.23 160.81" style="fill:#ebebeb"></polygon><polygon points="297.64 88.55 298.4 90.1 300.11 90.35 298.88 91.55 299.17 93.25 297.64 92.45 296.11 93.25 296.4 91.55 295.17 90.35 296.88 90.1 297.64 88.55" style="fill:#ebebeb"></polygon><polygon points="262.66 174.24 263.43 175.79 265.14 176.04 263.9 177.24 264.19 178.94 262.66 178.14 261.13 178.94 261.43 177.24 260.19 176.04 261.9 175.79 262.66 174.24" style="fill:#ebebeb"></polygon><polygon points="520.15 209.18 520.92 210.72 522.63 210.97 521.39 212.18 521.68 213.88 520.15 213.08 518.63 213.88 518.92 212.18 517.68 210.97 519.39 210.72 520.15 209.18" style="fill:#ebebeb"></polygon><polygon points="408.64 88.55 409.4 90.1 411.11 90.35 409.88 91.55 410.17 93.25 408.64 92.45 407.11 93.25 407.4 91.55 406.16 90.35 407.87 90.1 408.64 88.55" style="fill:#ebebeb"></polygon><polygon points="507.44 93.25 508.21 94.8 509.92 95.05 508.68 96.26 508.97 97.96 507.44 97.16 505.91 97.96 506.21 96.26 504.97 95.05 506.68 94.8 507.44 93.25" style="fill:#ebebeb"></polygon><path d="M307.84,128.4a33.31,33.31,0,1,1-36.28-49,31.15,31.15,0,1,0,36.28,49Z" style="fill:#ebebeb"></path><path d="M317.52,111.83c5.25,0,93.58.59,99.13.41.4,0,.61-.6.22-.8-3.5-1.73-7.47-1.38-11.11-2.61-2.14-.72-3.45-2.12-4.94-3.72a10.22,10.22,0,0,0-4.59-3,9.68,9.68,0,0,0-5-.16,42.82,42.82,0,0,0-5.06,2.1c-4.24,1.6-8.36.08-11.39-3.06-2.5-2.59-5-5-8.36-6.42a11.05,11.05,0,0,0-8.84-.12c-3.24,1.46-5.47,4.42-8.51,6.19-3.61,2.11-7.92,1.61-11.91,2.25s-7,4-10.53,5.92a7.55,7.55,0,0,1-3.81,1.18,22.72,22.72,0,0,1-2.32-.33,3.18,3.18,0,0,0-3.16.89C317.14,110.8,317.18,111.83,317.52,111.83Z" style="fill:#ebebeb"></path><path d="M429.34,174c5.25,0,93.58.58,99.13.4.4,0,.62-.6.22-.79-3.5-1.73-7.47-1.39-11.11-2.61-2.14-.72-3.45-2.12-4.93-3.73a10.34,10.34,0,0,0-4.6-3,9.75,9.75,0,0,0-5-.15c-1.8.42-3.35,1.45-5.06,2.1-4.25,1.6-8.37.08-11.4-3.06-2.5-2.59-4.95-5-8.35-6.43a11.08,11.08,0,0,0-8.85-.12c-3.24,1.47-5.46,4.42-8.51,6.19-3.6,2.11-7.92,1.61-11.9,2.25s-7.05,4-10.54,5.92a7.33,7.33,0,0,1-3.81,1.18c-.78,0-1.55-.23-2.32-.32-1.2-.15-2.34-.12-3.15.89C429,172.94,429,174,429.34,174Z" style="fill:#ebebeb"></path><path d="M236.91,220.84c5.25,0,93.58.58,99.13.4a.43.43,0,0,0,.22-.79c-3.5-1.73-7.47-1.39-11.11-2.61-2.14-.72-3.45-2.12-4.94-3.73a10.31,10.31,0,0,0-4.59-3,9.79,9.79,0,0,0-5-.15c-1.79.42-3.35,1.45-5.06,2.1-4.24,1.6-8.36.08-11.39-3.06-2.5-2.59-5-5-8.35-6.43a11.08,11.08,0,0,0-8.85-.12c-3.24,1.47-5.47,4.42-8.51,6.2-3.61,2.1-7.92,1.61-11.91,2.24s-7,4-10.53,5.93A7.55,7.55,0,0,1,242.2,219c-.78,0-1.55-.24-2.32-.33-1.21-.15-2.35-.12-3.16.89C236.53,219.8,236.57,220.84,236.91,220.84Z" style="fill:#ebebeb"></path><path d="M244.61,138.54c.1.3,139.22,0,137.46,0-.8,0,1.22-1.19.43-1.58-4.53-2.25-9.48-2.31-14.41-2.76a22,22,0,0,1-8.42-2c-2.62-1.37-4.26-3.75-6.12-6a26.18,26.18,0,0,0-23.76-9c-9.89,1.55-17.68,9.09-27.59,10.47-6,.84-11.58-1.47-17.4-2.28a21.36,21.36,0,0,0-13.07,2.39c-3.13,1.56-6,2.87-9.58,3.11-2.72.2-5.46-.12-8.19-.15a18.38,18.38,0,0,0-12.05,4.82C241.47,135.94,240.07,138.54,244.61,138.54Z" style="fill:#ebebeb;opacity:0.5"></path><rect x="442.11" y="144.67" width="58.62" height="186.23" style="fill:#ebebeb"></rect><rect x="442.11" y="138.68" width="60.03" height="5.99" transform="translate(944.25 283.35) rotate(180)" style="fill:#c7c7c7"></rect><rect x="489.49" y="153.5" width="5.93" height="177.4" style="fill:#fff"></rect><rect x="478.97" y="153.5" width="5.93" height="177.4" style="fill:#fff"></rect><rect x="468.45" y="153.5" width="5.94" height="177.4" style="fill:#fff"></rect><rect x="457.93" y="153.5" width="5.94" height="177.4" style="fill:#fff"></rect><rect x="447.41" y="153.5" width="5.94" height="177.4" style="fill:#fff"></rect><rect x="489.49" y="161.08" width="5.94" height="11.83" transform="translate(984.92 333.99) rotate(180)" style="fill:#ebebeb"></rect><rect x="478.97" y="161.08" width="5.94" height="11.83" transform="translate(963.88 333.99) rotate(180)" style="fill:#ebebeb"></rect><rect x="468.45" y="161.08" width="5.94" height="11.83" transform="translate(942.84 333.99) rotate(180)" style="fill:#ebebeb"></rect><rect x="457.93" y="161.08" width="5.94" height="11.83" transform="translate(921.8 333.99) rotate(180)" style="fill:#ebebeb"></rect><rect x="447.41" y="161.08" width="5.94" height="11.83" transform="translate(900.76 333.99) rotate(180)" style="fill:#ebebeb"></rect><rect x="489.49" y="180.31" width="5.94" height="11.83" transform="translate(984.92 372.44) rotate(180)" style="fill:#ebebeb"></rect><rect x="478.97" y="180.31" width="5.94" height="11.83" transform="translate(963.88 372.44) rotate(180)" style="fill:#ebebeb"></rect><rect x="468.45" y="180.31" width="5.94" height="11.83" transform="translate(942.84 372.44) rotate(180)" style="fill:#ebebeb"></rect><rect x="457.93" y="180.31" width="5.94" height="11.83" transform="translate(921.8 372.44) rotate(180)" style="fill:#ebebeb"></rect><rect x="447.41" y="180.31" width="5.94" height="11.83" transform="translate(900.76 372.44) rotate(180)" style="fill:#ebebeb"></rect><rect x="489.49" y="199.53" width="5.94" height="11.83" transform="translate(984.92 410.9) rotate(180)" style="fill:#ebebeb"></rect><rect x="478.97" y="199.53" width="5.94" height="11.83" transform="translate(963.88 410.9) rotate(180)" style="fill:#ebebeb"></rect><rect x="468.45" y="199.53" width="5.94" height="11.83" transform="translate(942.84 410.9) rotate(180)" style="fill:#ebebeb"></rect><rect x="457.93" y="199.53" width="5.94" height="11.83" transform="translate(921.8 410.9) rotate(180)" style="fill:#ebebeb"></rect><rect x="447.41" y="199.53" width="5.94" height="11.83" transform="translate(900.76 410.9) rotate(180)" style="fill:#ebebeb"></rect><rect x="489.49" y="218.76" width="5.94" height="11.83" transform="translate(984.92 449.35) rotate(180)" style="fill:#ebebeb"></rect><rect x="478.97" y="218.76" width="5.94" height="11.83" transform="translate(963.88 449.35) rotate(180)" style="fill:#ebebeb"></rect><rect x="468.45" y="218.76" width="5.94" height="11.83" transform="translate(942.84 449.35) rotate(180)" style="fill:#ebebeb"></rect><rect x="457.93" y="218.76" width="5.94" height="11.83" transform="translate(921.8 449.35) rotate(180)" style="fill:#ebebeb"></rect><rect x="447.41" y="218.76" width="5.94" height="11.83" transform="translate(900.76 449.35) rotate(180)" style="fill:#ebebeb"></rect><rect x="489.49" y="237.99" width="5.94" height="11.83" transform="translate(984.92 487.81) rotate(180)" style="fill:#ebebeb"></rect><rect x="478.97" y="237.99" width="5.94" height="11.83" transform="translate(963.88 487.81) rotate(180)" style="fill:#ebebeb"></rect><rect x="468.45" y="237.99" width="5.94" height="11.83" transform="translate(942.84 487.81) rotate(180)" style="fill:#ebebeb"></rect><rect x="457.93" y="237.99" width="5.94" height="11.83" transform="translate(921.8 487.81) rotate(180)" style="fill:#ebebeb"></rect><rect x="447.41" y="237.99" width="5.94" height="11.83" transform="translate(900.76 487.81) rotate(180)" style="fill:#ebebeb"></rect><rect x="489.49" y="257.22" width="5.94" height="11.83" transform="translate(984.92 526.27) rotate(180)" style="fill:#ebebeb"></rect><rect x="478.97" y="257.22" width="5.94" height="11.83" transform="translate(963.88 526.27) rotate(180)" style="fill:#ebebeb"></rect><rect x="468.45" y="257.22" width="5.94" height="11.83" transform="translate(942.84 526.27) rotate(180)" style="fill:#ebebeb"></rect><rect x="457.93" y="257.22" width="5.94" height="11.83" transform="translate(921.8 526.27) rotate(180)" style="fill:#ebebeb"></rect><rect x="447.41" y="257.22" width="5.94" height="11.83" transform="translate(900.76 526.27) rotate(180)" style="fill:#ebebeb"></rect><rect x="489.49" y="276.45" width="5.94" height="11.83" transform="translate(984.92 564.72) rotate(180)" style="fill:#ebebeb"></rect><rect x="478.97" y="276.45" width="5.94" height="11.83" transform="translate(963.88 564.72) rotate(180)" style="fill:#ebebeb"></rect><rect x="468.45" y="276.45" width="5.94" height="11.83" transform="translate(942.84 564.72) rotate(180)" style="fill:#ebebeb"></rect><rect x="457.93" y="276.45" width="5.94" height="11.83" transform="translate(921.8 564.72) rotate(180)" style="fill:#ebebeb"></rect><rect x="447.41" y="276.45" width="5.94" height="11.83" transform="translate(900.76 564.72) rotate(180)" style="fill:#ebebeb"></rect><rect x="489.49" y="295.67" width="5.94" height="11.83" transform="translate(984.92 603.18) rotate(180)" style="fill:#ebebeb"></rect><rect x="478.97" y="295.67" width="5.94" height="11.83" transform="translate(963.88 603.18) rotate(180)" style="fill:#ebebeb"></rect><rect x="468.45" y="295.67" width="5.94" height="11.83" transform="translate(942.84 603.18) rotate(180)" style="fill:#ebebeb"></rect><rect x="457.93" y="295.67" width="5.94" height="11.83" transform="translate(921.8 603.18) rotate(180)" style="fill:#ebebeb"></rect><rect x="447.41" y="295.67" width="5.94" height="11.83" transform="translate(900.76 603.18) rotate(180)" style="fill:#ebebeb"></rect><rect x="489.49" y="314.9" width="5.94" height="11.83" transform="translate(984.92 641.63) rotate(180)" style="fill:#ebebeb"></rect><rect x="478.97" y="314.9" width="5.94" height="11.83" transform="translate(963.88 641.63) rotate(180)" style="fill:#ebebeb"></rect><rect x="468.45" y="314.9" width="5.94" height="11.83" transform="translate(942.84 641.63) rotate(180)" style="fill:#ebebeb"></rect><rect x="457.93" y="314.9" width="5.94" height="11.83" transform="translate(921.8 641.63) rotate(180)" style="fill:#ebebeb"></rect><rect x="447.41" y="314.9" width="5.94" height="11.83" transform="translate(900.76 641.63) rotate(180)" style="fill:#ebebeb"></rect><rect x="404.47" y="144.67" width="37.63" height="186.23" style="fill:#dbdbdb"></rect><rect x="402.85" y="138.68" width="39.26" height="5.99" transform="translate(844.96 283.35) rotate(180)" style="fill:#c7c7c7"></rect><rect x="430.87" y="153.5" width="5.93" height="177.4" style="fill:#c7c7c7"></rect><rect x="420.35" y="153.5" width="5.93" height="177.4" style="fill:#c7c7c7"></rect><rect x="409.83" y="153.5" width="5.93" height="177.4" style="fill:#c7c7c7"></rect><rect x="430.87" y="161.08" width="5.94" height="11.83" transform="translate(867.68 333.99) rotate(180)" style="fill:#dbdbdb"></rect><rect x="420.35" y="161.08" width="5.94" height="11.83" transform="translate(846.64 333.99) rotate(180)" style="fill:#dbdbdb"></rect><rect x="409.83" y="161.08" width="5.94" height="11.83" transform="translate(825.6 333.99) rotate(180)" style="fill:#dbdbdb"></rect><rect x="430.87" y="180.31" width="5.94" height="11.83" transform="translate(867.68 372.44) rotate(180)" style="fill:#dbdbdb"></rect><rect x="420.35" y="180.31" width="5.94" height="11.83" transform="translate(846.64 372.44) rotate(180)" style="fill:#dbdbdb"></rect><rect x="409.83" y="180.31" width="5.94" height="11.83" transform="translate(825.6 372.44) rotate(180)" style="fill:#dbdbdb"></rect><rect x="430.87" y="199.53" width="5.94" height="11.83" transform="translate(867.68 410.9) rotate(180)" style="fill:#dbdbdb"></rect><rect x="420.35" y="199.53" width="5.94" height="11.83" transform="translate(846.64 410.9) rotate(180)" style="fill:#dbdbdb"></rect><rect x="409.83" y="199.53" width="5.94" height="11.83" transform="translate(825.6 410.9) rotate(180)" style="fill:#dbdbdb"></rect><rect x="430.87" y="218.76" width="5.94" height="11.83" transform="translate(867.68 449.35) rotate(180)" style="fill:#dbdbdb"></rect><rect x="420.35" y="218.76" width="5.94" height="11.83" transform="translate(846.64 449.35) rotate(180)" style="fill:#dbdbdb"></rect><rect x="409.83" y="218.76" width="5.94" height="11.83" transform="translate(825.6 449.35) rotate(180)" style="fill:#dbdbdb"></rect><rect x="430.87" y="237.99" width="5.94" height="11.83" transform="translate(867.68 487.81) rotate(180)" style="fill:#dbdbdb"></rect><rect x="420.35" y="237.99" width="5.94" height="11.83" transform="translate(846.64 487.81) rotate(180)" style="fill:#dbdbdb"></rect><rect x="409.83" y="237.99" width="5.94" height="11.83" transform="translate(825.6 487.81) rotate(180)" style="fill:#dbdbdb"></rect><rect x="430.87" y="257.22" width="5.94" height="11.83" transform="translate(867.68 526.27) rotate(180)" style="fill:#dbdbdb"></rect><rect x="420.35" y="257.22" width="5.94" height="11.83" transform="translate(846.64 526.27) rotate(180)" style="fill:#dbdbdb"></rect><rect x="409.83" y="257.22" width="5.94" height="11.83" transform="translate(825.6 526.27) rotate(180)" style="fill:#dbdbdb"></rect><rect x="430.87" y="276.45" width="5.94" height="11.83" transform="translate(867.68 564.72) rotate(180)" style="fill:#dbdbdb"></rect><rect x="420.35" y="276.45" width="5.94" height="11.83" transform="translate(846.64 564.72) rotate(180)" style="fill:#dbdbdb"></rect><rect x="409.83" y="276.45" width="5.94" height="11.83" transform="translate(825.6 564.72) rotate(180)" style="fill:#dbdbdb"></rect><rect x="430.87" y="295.67" width="5.94" height="11.83" transform="translate(867.68 603.18) rotate(180)" style="fill:#dbdbdb"></rect><rect x="420.35" y="295.67" width="5.94" height="11.83" transform="translate(846.64 603.18) rotate(180)" style="fill:#dbdbdb"></rect><rect x="409.83" y="295.67" width="5.94" height="11.83" transform="translate(825.6 603.18) rotate(180)" style="fill:#dbdbdb"></rect><rect x="430.87" y="314.9" width="5.94" height="11.83" transform="translate(867.68 641.63) rotate(180)" style="fill:#dbdbdb"></rect><rect x="420.35" y="314.9" width="5.94" height="11.83" transform="translate(846.64 641.63) rotate(180)" style="fill:#dbdbdb"></rect><rect x="409.83" y="314.9" width="5.94" height="11.83" transform="translate(825.6 641.63) rotate(180)" style="fill:#dbdbdb"></rect><rect x="515.95" y="245.27" width="19.93" height="85.62" style="fill:#ebebeb"></rect><rect x="515.95" y="230.59" width="19.93" height="14.69" style="fill:#c7c7c7"></rect><rect x="522.35" y="252.94" width="13.52" height="77.96" style="fill:#dbdbdb"></rect><rect x="522.35" y="268.73" width="13.52" height="3.91" style="fill:#fff"></rect><rect x="522.35" y="284.93" width="13.52" height="3.91" style="fill:#fff"></rect><rect x="522.35" y="301.13" width="13.52" height="3.91" style="fill:#fff"></rect><rect x="522.35" y="317.33" width="13.52" height="3.91" style="fill:#fff"></rect><rect x="479.39" y="245.27" width="36.56" height="85.62" style="fill:#dbdbdb"></rect><rect x="484.88" y="230.59" width="31.07" height="14.68" transform="translate(1000.82 475.87) rotate(180)" style="fill:#a6a6a6"></rect><rect x="482.8" y="252.94" width="28.11" height="77.96" style="fill:#c7c7c7"></rect><rect x="482.8" y="268.73" width="28.11" height="3.91" transform="translate(993.71 541.37) rotate(180)" style="fill:#fff"></rect><rect x="482.8" y="284.93" width="28.11" height="3.91" transform="translate(993.71 573.76) rotate(180)" style="fill:#fff"></rect><rect x="482.8" y="301.12" width="28.11" height="3.91" transform="translate(993.71 606.16) rotate(180)" style="fill:#fff"></rect><rect x="482.8" y="317.32" width="28.11" height="3.91" transform="translate(993.71 638.55) rotate(180)" style="fill:#fff"></rect><rect x="343.04" y="200.79" width="31.17" height="36.82" transform="translate(717.25 438.4) rotate(180)" style="fill:#dbdbdb"></rect><rect x="323.27" y="200.79" width="19.77" height="38.17" transform="translate(666.31 439.75) rotate(180)" style="fill:#c7c7c7"></rect><rect x="321.96" y="217.05" width="19.62" height="21.91" transform="translate(663.53 456.01) rotate(180)" style="fill:#dbdbdb"></rect><rect x="309.72" y="217.05" width="12.23" height="21.91" transform="translate(631.68 456.01) rotate(180)" style="fill:#c7c7c7"></rect><rect x="335.76" y="235.22" width="50.41" height="95.68" style="fill:#ebebeb"></rect><rect x="364.55" y="243.1" width="15.85" height="6.48" transform="translate(744.96 492.67) rotate(180)" style="fill:#fff"></rect><rect x="344.28" y="243.1" width="15.85" height="6.48" transform="translate(704.4 492.67) rotate(180)" style="fill:#fff"></rect><rect x="364.55" y="254.09" width="15.85" height="6.48" transform="translate(744.96 514.66) rotate(180)" style="fill:#fff"></rect><rect x="344.28" y="254.09" width="15.85" height="6.48" transform="translate(704.4 514.66) rotate(180)" style="fill:#fff"></rect><rect x="364.55" y="265.09" width="15.85" height="6.48" transform="translate(744.96 536.65) rotate(180)" style="fill:#fff"></rect><rect x="344.28" y="265.09" width="15.85" height="6.48" transform="translate(704.4 536.65) rotate(180)" style="fill:#fff"></rect><rect x="364.55" y="276.08" width="15.85" height="6.48" transform="translate(744.96 558.64) rotate(180)" style="fill:#fff"></rect><rect x="344.28" y="276.08" width="15.85" height="6.48" transform="translate(704.4 558.64) rotate(180)" style="fill:#fff"></rect><rect x="364.55" y="287.08" width="15.85" height="6.48" transform="translate(744.96 580.64) rotate(180)" style="fill:#fff"></rect><rect x="344.28" y="287.08" width="15.85" height="6.48" transform="translate(704.4 580.64) rotate(180)" style="fill:#fff"></rect><rect x="364.55" y="298.08" width="15.85" height="6.48" transform="translate(744.96 602.63) rotate(180)" style="fill:#fff"></rect><rect x="344.28" y="298.08" width="15.85" height="6.48" transform="translate(704.4 602.63) rotate(180)" style="fill:#fff"></rect><rect x="364.55" y="309.07" width="15.85" height="6.48" transform="translate(744.96 624.62) rotate(180)" style="fill:#fff"></rect><rect x="344.28" y="309.07" width="15.85" height="6.48" transform="translate(704.4 624.62) rotate(180)" style="fill:#fff"></rect><rect x="364.55" y="320.07" width="15.85" height="6.48" transform="translate(744.96 646.61) rotate(180)" style="fill:#fff"></rect><rect x="344.28" y="320.07" width="15.85" height="6.48" transform="translate(704.4 646.61) rotate(180)" style="fill:#fff"></rect><rect x="294.91" y="235.22" width="40.84" height="95.68" style="fill:#c7c7c7"></rect><rect x="299.01" y="320.07" width="13.01" height="6.48" style="fill:#ebebeb"></rect><rect x="315.66" y="320.07" width="13.01" height="6.48" style="fill:#ebebeb"></rect><rect x="299.01" y="309.07" width="13.01" height="6.48" style="fill:#ebebeb"></rect><rect x="315.66" y="309.07" width="13.01" height="6.48" style="fill:#ebebeb"></rect><rect x="299.01" y="298.08" width="13.01" height="6.48" style="fill:#ebebeb"></rect><rect x="315.66" y="298.08" width="13.01" height="6.48" style="fill:#ebebeb"></rect><rect x="299.01" y="287.08" width="13.01" height="6.48" style="fill:#ebebeb"></rect><rect x="315.66" y="287.08" width="13.01" height="6.48" style="fill:#ebebeb"></rect><rect x="299.01" y="276.08" width="13.01" height="6.48" style="fill:#ebebeb"></rect><rect x="315.66" y="276.08" width="13.01" height="6.48" style="fill:#ebebeb"></rect><rect x="299.01" y="265.09" width="13.01" height="6.48" style="fill:#ebebeb"></rect><rect x="315.66" y="265.09" width="13.01" height="6.48" style="fill:#ebebeb"></rect><rect x="299.01" y="254.09" width="13.01" height="6.48" style="fill:#ebebeb"></rect><rect x="315.66" y="254.09" width="13.01" height="6.48" style="fill:#ebebeb"></rect><rect x="299.01" y="243.1" width="13.01" height="6.48" style="fill:#ebebeb"></rect><rect x="315.66" y="243.1" width="13.01" height="6.48" style="fill:#ebebeb"></rect><rect x="214.12" y="191.61" width="321.74" height="7.33" transform="translate(749.99 390.56) rotate(180)" style="fill:#ebebeb"></rect><rect x="427.56" y="59.66" width="3.67" height="264.45" style="fill:#ebebeb"></rect><rect x="318.76" y="59.66" width="3.67" height="264.45" style="fill:#ebebeb"></rect></g><g id="freepik--Line--inject-123"><polygon points="50.72 459.21 131.79 458.96 212.86 458.88 375 458.71 537.14 458.88 618.21 458.96 699.28 459.21 618.21 459.45 537.14 459.54 375 459.71 212.86 459.54 131.79 459.45 50.72 459.21" style="fill:#263238"></polygon></g><g id="freepik--character-2--inject-123"><polygon points="695.37 459.21 522.21 459.21 532.38 400.02 534.89 385.4 535.29 383.08 536.05 378.68 542.5 341.16 544.45 329.81 544.58 329.03 550.09 296.99 551.47 288.97 551.63 288.04 551.88 286.56 553.42 277.58 553.69 276.05 553.8 275.39 687 275.39 695.37 459.21" style="fill:#dbdbdb"></polygon><polygon points="695.37 459.21 679.83 459.21 672.03 275.39 687 275.39 695.37 459.21" style="fill:#c7c7c7"></polygon><path d="M652.34,433c-.46,1.07-1,2.15-1.5,3.21a63.28,63.28,0,0,1-6.93,10.92,64.52,64.52,0,0,1-5.23,5.87,52.13,52.13,0,0,1-4.45,3.89c-.74.6-1.52,1.2-2.34,1.81l-.66.5H456.86c.66-.69,1.33-1.38,2-2.07s1.32-1.32,2-2c.52-.52,1.06-1,1.6-1.55,3.43-3.3,7.14-6.64,11.07-10l1.48-1.26q3-2.55,6.12-5.08l1.57-1.27c1-.86,2.12-1.71,3.19-2.55l.21-.16,1.4-1.11q3.24-2.55,6.59-5.08l1.67-1.26c2.24-1.7,4.51-3.38,6.79-5l1.71-1.25c1.14-.84,2.29-1.66,3.44-2.48l1.73-1.24c4.61-3.3,9.25-6.53,13.86-9.68l3.45-2.34q2.84-1.94,5.62-3.78c1-.66,2-1.3,2.91-1.93s2-1.32,3-2q3.94-2.61,7.76-5.06l2.42-1.55c4.43-2.85,8.68-5.54,12.69-8l2.2-1.37.21-.13,2.05-1.27,3.4-2.1,3-1.84c7.56-4.62,13.62-8.21,17.43-10.43l.83-.49,1.64-.95.38-.22,1.48-.86h0l.1-.06h56.8c0,.14.51,1.25,1.19,3.17.49,1.41,1.09,3.25,1.74,5.45.11.4.23.81.35,1.23s.24.86.36,1.31c.29,1.11.59,2.3.89,3.54h0c.12.5.23,1,.35,1.52.52,2.33,1,4.85,1.43,7.53q.13.89.27,1.8C659.14,400.64,659.12,417.37,652.34,433Z" style="fill:#f7a9a0"></path><path d="M652.34,433c-.47,1.07-1,2.15-1.5,3.21a63.28,63.28,0,0,1-6.93,10.92,66.1,66.1,0,0,1-5.24,5.86,55.33,55.33,0,0,1-4.44,3.9c-.74.59-1.52,1.19-2.34,1.81l-.66.5H464.58l-5.7-2.07c.65-.66,1.32-1.32,2-2,.52-.52,1.06-1,1.6-1.55,3.43-3.3,7.14-6.64,11.07-10l1.48-1.26q3-2.55,6.12-5.08l1.57-1.27c1-.86,2.12-1.71,3.19-2.55l.2-.17,1.41-1.1q3.24-2.55,6.59-5.08l1.67-1.26c2.24-1.7,4.51-3.38,6.79-5l1.71-1.25c1.14-.84,2.29-1.66,3.44-2.48l1.73-1.24c4.61-3.3,9.25-6.53,13.86-9.68l3.45-2.34q2.84-1.94,5.62-3.78c1-.66,2-1.3,2.91-1.93s2-1.32,3-2q3.94-2.61,7.76-5.06l2.42-1.55c4.43-2.85,8.68-5.54,12.69-8l2.2-1.37.21-.13,2.05-1.27,3.4-2.1,3-1.84c7.56-4.62,13.62-8.21,17.43-10.43l.83-.49,1.64-.95.38-.22,1.48-.86h0l.1-.06H650.7c0,.14.51,1.25,1.18,3.17.5,1.41,1.1,3.25,1.74,5.45.12.4.24.81.35,1.23s.24.86.36,1.31c.3,1.11.6,2.3.89,3.54h0c.12.5.24,1,.35,1.52.52,2.33,1,4.85,1.43,7.53q.13.89.27,1.8C659.14,400.64,659.12,417.37,652.34,433Z" style="fill:#263238"></path><path d="M653.19,459.21H356.87c8.17-19.84,16.73-36.82,25.24-47.61,5.78-7.33,15.68-12.76,27.75-16.74,42.9-14.18,113.38-10.23,125-9.46l1.66.12a30.44,30.44,0,0,1,2.72-6.47c4.19-7.86,11.26-16.59,11.81-17.28l0,0H653v0l.06.18C654.46,365.93,676.06,430.28,653.19,459.21Z" style="fill:#f7a9a0"></path><path d="M654.55,459.21H509.4c-5.32-6.37-13.85-16.26-23.28-25.93h0c-11.51-11.8-24.36-23.28-34.33-27.61a141.74,141.74,0,0,0-41.92-10.8c-2-.19-3.17-.23-3.17-.23s44.88-14.53,128.6-11.55l.73,0s.78-1.65,2.18-4.14c2.55-4.56,7.18-11.94,12.88-17.19l0,0H653v0l.06.18C654.62,366,678.92,432.26,654.55,459.21Z" style="fill:#BA68C8"></path><path d="M560.54,266.4c-11.22,45.82-44.19,90.78-52.12,95.65-10.73,6.58-63.17,8.4-76.14,9.1-5.11.28-9.36.42-12.37.55-7.46.26-18.23-49.26-12.79-55.11,1.26-1.33,6.2-2.25,13.1-2.93,23.26-2.24,61.49-.86,64.28-3.38s31.82-32.52,50.53-55C549.38,238.08,568.73,232.93,560.54,266.4Z" style="fill:#f7a9a0"></path><path d="M432.28,371.16c-1,.43-15.39,6.19-24.18,8.12-6.55,1.44-25.52,5.08-27.82-2-1.58-4.81,9.33-8.26,17-10.88,4-1.38,9.15-5.17,8.15-7.77-1.73-4.54-12.13-.78-19,2.65C373,367.92,355,380.24,347.61,373.2c-2.8-2.66.94-6.92,6.27-11-8.52,4.59-17.52,8.22-20.75,5.39-1.85-1.61-1.81-3.66-.57-5.92-2.58.66-4.8.35-6.25-1.4-2.48-2.95-.91-7,2.28-11a3.16,3.16,0,0,1-2.31-1.75c-5.07-9,24.73-31.75,34.63-33.41,29.13-4.93,59.47-.44,59.47-.44C431.05,323.43,432.3,371.14,432.28,371.16Z" style="fill:#f7a9a0"></path><path d="M391.87,341.65a46.82,46.82,0,0,0-19.61,6.1c-7,4.16-12.73,10.08-19.25,14.87-.18.13,0,.41.21.27,3.08-2.5,6.44-4.69,9.63-7.06s6.16-4.75,9.42-6.84a46.38,46.38,0,0,1,19.62-7.22C392,341.76,392,341.64,391.87,341.65Z" style="fill:#263238"></path><path d="M387.33,329.13c-7.67,1.56-15.53,3.14-22.76,6.24-7.91,3.4-14.32,9.36-20.62,15.1q-5.67,5.16-11.1,10.57c-.15.15,0,.42.21.27q9.58-8.9,19.7-17.2a61.42,61.42,0,0,1,21.14-11.45c4.42-1.36,8.94-2.38,13.45-3.4C387.43,329.24,387.42,329.11,387.33,329.13Z" style="fill:#263238"></path><path d="M380,318c-7.42,1-13.9,1.88-20.64,5.38-8.92,4.63-17.79,12.84-20.9,15.75-3.44,3.22-6.76,6.54-10,9.92-.13.14.1.38.24.24a243.38,243.38,0,0,1,23.8-20.65,48.38,48.38,0,0,1,13-7.3A87.82,87.82,0,0,1,380,318S380,318,380,318Z" style="fill:#263238"></path><path d="M560.54,266.4c-11.22,45.82-44.19,90.78-52.12,95.65-5.29,3.25-20.76,5.34-36.61,6.7l83.26-127C561.44,241.68,564.91,248.54,560.54,266.4Z" style="opacity:0.1"></path><path d="M551.12,361.73s63.45.22,101.92,0c0,0-38.23-91.4-67.91-116.95-13.5-11.62-25.12-8.37-34.24,1-2.28,2.35-26,44.12-26,58.17-.05,15.25,12.83,25.64,12.83,25.64Z" style="fill:#f7a9a0"></path><path d="M645.41,344.44s-27.66-3.39-35.57-13.9c-5.78-7.68-28.87-44.15-43.61-47.49-12.72-2.87-23.91,12.63-23.91,12.63s-8.66-11.79-11.4-12-9.76,16.11-6.49,27,13.24,19,13.24,19l13.45,32.08,101.92,0S647.86,347.19,645.41,344.44Z" style="fill:#BA68C8"></path><path d="M548.25,325.76a91.15,91.15,0,0,1,13.37,1.77c2.19.49,4.33,1.07,6.48,1.71,1.07.31,2.14.59,3.22.87a14.41,14.41,0,0,0,3.45.53.08.08,0,1,1,0,.16,24.21,24.21,0,0,1-3.3.05,22.58,22.58,0,0,1-3.16-.5c-2.22-.47-4.42-1.05-6.64-1.54-4.47-1-8.93-2-13.46-2.68C548,326.1,548,325.75,548.25,325.76Z" style="fill:#263238"></path><path d="M540.33,329.57a63.38,63.38,0,0,1,8.8-.79,40.68,40.68,0,0,1,4.41.21c.7.06,1.4.14,2.11.23s1.53.34,2.3.42c.08,0,.09.17,0,.16-.73-.05-1.47.05-2.2.05h-2.2c-1.47,0-2.94,0-4.41,0-2.94,0-5.87,0-8.81.05C540.18,329.88,540.18,329.6,540.33,329.57Z" style="fill:#263238"></path><path d="M412,162.63c16.34,56.45,21.3,73.56,6.12,78S398,227.85,381.67,171.4Z" style="fill:#ebebeb"></path><path d="M412,162.63c3.94,13.45,8,26.88,11.45,40.49.85,3.4,1.66,6.81,2.35,10.26a86.91,86.91,0,0,1,1.52,10.42c.21,3.49.23,7.13-1.14,10.46a10.26,10.26,0,0,1-3.2,4.23,16,16,0,0,1-10.06,2.93,10.19,10.19,0,0,1-5-1.85c-2.95-2.08-4.89-5.17-6.57-8.24a84.28,84.28,0,0,1-4.28-9.63c-1.27-3.28-2.4-6.6-3.5-9.93-4.35-13.35-8.14-26.86-12-40.33l0-.13.13,0Zm0,0-30.28,8.9.09-.16c3.95,13.45,7.78,26.95,12.17,40.27,1.11,3.32,2.26,6.63,3.52,9.89a84.7,84.7,0,0,0,4.3,9.57c1.67,3,3.59,6.06,6.41,8.07A9.66,9.66,0,0,0,413,241a15.6,15.6,0,0,0,9.76-2.81,9.84,9.84,0,0,0,3.08-4.05c1.34-3.21,1.35-6.81,1.14-10.27a84.92,84.92,0,0,0-1.48-10.39c-.67-3.43-1.47-6.85-2.31-10.25-1.67-6.81-3.57-13.56-5.43-20.32Z" style="fill:#263238"></path><rect x="422.77" y="228.1" width="4.45" height="72.33" transform="translate(-56.74 128.65) rotate(-16.15)" style="fill:#ebebeb"></rect><polygon points="460.4 297.81 412.99 311.54 434.65 297.61 460.4 297.81" style="fill:#ebebeb"></polygon><path d="M416.76,235.93c5.86-1.7,9.26-7.05,1.25-39.52,0,0-1.9,4.2-4.71,5.7-3.33,1.79-12.83-7.89-20.39-5.7C392.91,196.41,403.12,239.88,416.76,235.93Z" style="fill:#BA68C8"></path><path d="M592.63,269C588.76,318.15,564,375.85,544.4,378.86c-24.93,3.85-68.69-37.49-85-49-7.06-5,28.73-55.38,36.38-50.22,9.49,6.41,35.91,35.69,37.49,34,2.18-2.34,16.53-22,32.56-47C587.64,232.51,593.74,255,592.63,269Z" style="fill:#f7a9a0"></path><path d="M501.85,284.81S484.3,267.09,472.29,256c-6.71-6.16-19.15-15.7-26.15-18-10.46-3.4-56.41-10.95-58.48.16-1.87,10,38.43,11.52,38.43,11.52s-40.53-5.08-40.57,7.43,45.72,8.12,45.72,8.12-41.76-4.28-39.75,8.63c1.52,9.75,43.18,8.11,43.18,8.11s-35.92-3.44-34.79,6.66c1.25,11.17,39.8,12.06,39.8,12.06,7.19,25.19,18,29.61,28.56,34.89C470.79,336.92,501.85,284.81,501.85,284.81Z" style="fill:#f7a9a0"></path><path d="M440.22,250.59c-4.74-.77-9.53-1.58-14.33-1.92s-9.6-.52-14.4-.42c-11.77.25-19.11,2.25-18.64,2.18,11-1.76,28.2-.79,33-.44s9.58.45,14.36.79A.1.1,0,0,0,440.22,250.59Z" style="fill:#263238"></path><path d="M439.29,267.92c-6.1-.72-12.12-1.66-18.25-2.11s-11.92-.34-18-.37c-.47,0-.31.25.16.27,6.11.27,11.73,1,17.83,1.34s12.23.45,18.29,1C439.37,268.07,439.38,267.93,439.29,267.92Z" style="fill:#263238"></path><path d="M441.16,282.93c-9.26-1.58-18.79-1.44-28.15-1.09-.46,0-.23.32.25.33,9.36.19,16.71.27,27.85,1.08C441.28,283.27,441.35,283,441.16,282.93Z" style="fill:#263238"></path><path d="M504.79,364.54q-8.48-5.54-16.56-11.63c-5.41-4-10.69-8.22-15.9-12.52l-3.86-3.27-.48-.41-.24-.21-.19-.15a8.3,8.3,0,0,0-.95-.52c-.75-.36-1.53-.72-2.28-1.11a43.79,43.79,0,0,1-8.56-5.69,41.92,41.92,0,0,1-6.91-7.55,47,47,0,0,1-4.9-8.88,50.8,50.8,0,0,0,12.8,15.22,46.1,46.1,0,0,0,8.42,5.2l2.27,1.07a9.77,9.77,0,0,1,1.26.69,1.91,1.91,0,0,1,.3.24l.25.2.48.41,3.87,3.22c5.16,4.32,10.37,8.57,15.58,12.84S499.6,360.23,504.79,364.54Z" style="fill:#263238"></path><path d="M592.1,285.31c-.23,1.31-.54,2.59-.86,3.87s-.68,2.56-1,3.82-.78,2.53-1.22,3.77-.88,2.5-1.41,3.72c.23-1.31.54-2.6.86-3.88s.68-2.55,1.05-3.82.78-2.53,1.22-3.77S591.57,286.53,592.1,285.31Z" style="fill:#263238"></path><path d="M592.86,288.93c-.42.83-.91,1.59-1.39,2.37s-1,1.52-1.61,2.23c.42-.82.91-1.59,1.4-2.37A26.69,26.69,0,0,1,592.86,288.93Z" style="fill:#263238"></path><path d="M559.5,277.18c-3.55,5.69-7.25,11.29-11,16.84s-7.58,11.06-11.71,16.37c-.52.66-1,1.32-1.59,2-.28.33-.56.65-.86,1a5.55,5.55,0,0,1-.49.47,1.48,1.48,0,0,1-.36.24.86.86,0,0,1-.58,0,8,8,0,0,1-2.31-1.35c-.67-.52-1.32-1.06-2-1.61-2.54-2.21-4.94-4.56-7.32-6.92-4.76-4.73-9.35-9.63-13.86-14.59q7.05,7.17,14.28,14.16c2.42,2.31,4.86,4.6,7.42,6.75.64.53,1.28,1,2,1.54a7.58,7.58,0,0,0,2,1.19c-.06.17.36-.22.6-.49s.54-.61.81-.93c.53-.64,1-1.29,1.54-2,4-5.35,7.87-10.83,11.74-16.3S555.54,282.6,559.5,277.18Z" style="fill:#263238"></path><path d="M556.31,278.56a22.61,22.61,0,0,1-.74,3.38,21.27,21.27,0,0,1-1.23,3.25,24.37,24.37,0,0,1,2-6.63Z" style="fill:#263238"></path><path d="M562.36,232.72a.84.84,0,0,0-.83.83.83.83,0,0,0,1.66,0A.85.85,0,0,0,562.36,232.72Zm2.34.15h0a.07.07,0,0,0,0,0h-.09a.85.85,0,0,0-.83.73v.07a.85.85,0,0,0,.72.84h.16a.83.83,0,0,0,.83-.72v-.07A.81.81,0,0,0,564.7,232.87Zm-3.69.72a.82.82,0,0,0-.8-.67h-.14a.81.81,0,0,0-.69.8.66.66,0,0,0,0,.14.82.82,0,0,0,.81.68.27.27,0,0,0,.13,0v0a.84.84,0,0,0,.69-.84A.49.49,0,0,0,561,233.59Zm6-.13a.74.74,0,0,0-.32-.07.81.81,0,0,0-.75.5.92.92,0,0,0-.07.32.81.81,0,0,0,.51.75.63.63,0,0,0,.3.07.8.8,0,0,0,.76-.5.74.74,0,0,0,.07-.32A.83.83,0,0,0,567,233.46Zm-8.14.54a.84.84,0,0,0-.78-.53.86.86,0,0,0-.27.05.85.85,0,0,0-.55.78.83.83,0,0,0,.84.82.82.82,0,0,0,.28-.07.8.8,0,0,0,.53-.76A1,1,0,0,0,558.87,234Zm-2,.81a.81.81,0,1,0-1.39.83.75.75,0,0,0,.69.39.72.72,0,0,0,.42-.11.77.77,0,0,0,.4-.69A.81.81,0,0,0,556.84,234.81Zm12.22,0a.8.8,0,0,0-.55-.2.92.92,0,0,0-.45.12,1.07,1.07,0,0,0-.16.14.76.76,0,0,0-.2.53.86.86,0,0,0,.27.63.76.76,0,0,0,.54.22h.07a.79.79,0,0,0,.54-.26.81.81,0,0,0,.22-.56A.78.78,0,0,0,569.06,234.77ZM555,235.94a.85.85,0,0,0-.65-.3.82.82,0,0,0-.51.17.8.8,0,0,0-.29.63.85.85,0,0,0,.18.53.82.82,0,0,0,.64.31.93.93,0,0,0,.52-.18.79.79,0,0,0,.29-.63A.85.85,0,0,0,555,235.94Zm15.57.72a.77.77,0,0,0-.68-.4.82.82,0,0,0-.43.12.8.8,0,0,0-.35,1h0a.25.25,0,0,0,0,.11.84.84,0,0,0,.72.42.88.88,0,0,0,.39-.11.72.72,0,0,0,.27-.28.8.8,0,0,0,.14-.45A.87.87,0,0,0,570.56,236.66Zm-17.23.68a.82.82,0,0,0-.58-.24.75.75,0,0,0-.33.07.85.85,0,0,0-.25.17.77.77,0,0,0-.22.46.49.49,0,0,0,0,.12.85.85,0,0,0,.23.58.82.82,0,0,0,1.16,0,.81.81,0,0,0,.25-.59A.77.77,0,0,0,553.33,237.34Zm18.15,1.51a.82.82,0,0,0-.77-.59.93.93,0,0,0-.23,0,.82.82,0,0,0-.59.79,1,1,0,0,0,0,.24.81.81,0,0,0,.79.56.75.75,0,0,0,.21,0,.84.84,0,0,0,.59-.77A.73.73,0,0,0,571.48,238.85Zm-19.65.06a.85.85,0,0,0-.53-.18h-.12a.73.73,0,0,0-.51.28.85.85,0,0,0-.18.53h0a.78.78,0,0,0,.29.62.76.76,0,0,0,.52.17.82.82,0,0,0,.63-.28.8.8,0,0,0,.19-.53A.82.82,0,0,0,551.83,238.91Zm19.33,1.47H571a.85.85,0,0,0-.7.83s0,.06,0,.09a.83.83,0,0,0,.82.72l.11,0a.85.85,0,0,0,.7-.84v-.08A.81.81,0,0,0,571.16,240.38Zm-20.71.21a.82.82,0,0,0-.47-.15.77.77,0,0,0-.36.09h0a.77.77,0,0,0-.28.23.81.81,0,0,0-.1.18.67.67,0,0,0-.07.31.81.81,0,0,0,.34.66.74.74,0,0,0,.48.15.78.78,0,0,0,.65-.32.84.84,0,0,0-.17-1.16Zm-1.26,1.77a1,1,0,0,0-.48-.14.81.81,0,0,0-.68.36.84.84,0,0,0-.13.46.8.8,0,0,0,.35.67.6.6,0,0,0,.15.09.81.81,0,0,0,.31.06.79.79,0,0,0,.67-.37h0a.62.62,0,0,0,.1-.24.57.57,0,0,0,0-.22A.81.81,0,0,0,549.19,242.36Zm22.15.19h0a.81.81,0,0,0-.78.8v0a.81.81,0,0,0,.81.81h0a.82.82,0,0,0,0-1.64ZM548,244.17a.31.31,0,0,0-.13-.06.7.7,0,0,0-.31-.07.81.81,0,0,0-.69.37.77.77,0,0,0-.12.35.34.34,0,0,0,0,.1.8.8,0,0,0,.37.68.89.89,0,0,0,.46.13.79.79,0,0,0,.67-.37.81.81,0,0,0,.13-.45A.8.8,0,0,0,548,244.17Zm23.37.57h-.08a.78.78,0,0,0-.77.76v.06a.81.81,0,0,0,.76.81h0a.85.85,0,0,0,.83-.78v0A.81.81,0,0,0,571.33,244.74ZM546.79,246a.75.75,0,0,0-.43-.13.86.86,0,0,0-.83.83.84.84,0,0,0,.38.7,1.24,1.24,0,0,0,.44.11.85.85,0,0,0,.7-.37.84.84,0,0,0,.13-.45A.81.81,0,0,0,546.79,246Zm24.38.89h-.1a.82.82,0,0,0-.79.73.49.49,0,0,0,0,.12.8.8,0,0,0,.71.8h.11a.82.82,0,0,0,.8-.72s0-.06,0-.09A.85.85,0,0,0,571.17,246.89Zm-25.42,1-.12-.1a.82.82,0,0,0-1.23.71.83.83,0,0,0,.4.71.85.85,0,0,0,.42.11.82.82,0,0,0,.69-.39.59.59,0,0,0,.09-.24h0a.57.57,0,0,0,0-.18A.8.8,0,0,0,545.75,247.93Zm25.14,1.12h-.15a.82.82,0,0,0-.81.67.88.88,0,0,0,0,.16.83.83,0,0,0,.67.8h.16a.84.84,0,0,0,.81-.66.76.76,0,0,0,0-.15A.83.83,0,0,0,570.89,249.05Zm-26.35.68a.83.83,0,0,0-1.09.37.78.78,0,0,0-.08.36.8.8,0,0,0,.47.73.65.65,0,0,0,.35.09.83.83,0,0,0,.74-.46.72.72,0,0,0,.08-.35A.81.81,0,0,0,544.54,249.73Zm25.94,1.46-.2,0a.83.83,0,0,0-.81.62.68.68,0,0,0,0,.2.81.81,0,0,0,.63.8c.07,0,.13,0,.2,0a.84.84,0,0,0,.79-.64,1.11,1.11,0,0,0,0-.19A.81.81,0,0,0,570.48,251.19Zm-26.86.5a.75.75,0,0,0-.29-.06.87.87,0,0,0-.78.52.85.85,0,0,0-.06.31.82.82,0,0,0,.52.76.63.63,0,0,0,.31.05.75.75,0,0,0,.74-.51.85.85,0,0,0,.06-.31A.82.82,0,0,0,543.62,251.69Zm26.31,1.62a1,1,0,0,0-.24,0,.82.82,0,0,0-.78.58,1,1,0,0,0,0,.24.81.81,0,0,0,.58.77.86.86,0,0,0,.24,0,.82.82,0,0,0,.79-.59.93.93,0,0,0,0-.23A.82.82,0,0,0,569.93,253.31Zm-27.11.41a.92.92,0,0,0-.28-.05.81.81,0,0,0-.77.56.86.86,0,0,0,0,.27.82.82,0,0,0,.55.77,1.19,1.19,0,0,0,.26,0,.85.85,0,0,0,.79-.55.85.85,0,0,0-.5-1.05Zm27,2.4a.79.79,0,0,0-.51-.74.85.85,0,0,0-.31-.06.82.82,0,0,0-.76.52,1,1,0,0,0-.05.29.85.85,0,0,0,.53.78.68.68,0,0,0,.28,0,.86.86,0,0,0,.79-.52h0A.85.85,0,0,0,569.79,256.12Zm-27.69-.35a1,1,0,0,0-.24,0,.82.82,0,0,0-.79.59,1,1,0,0,0,0,.24.82.82,0,0,0,.59.78.58.58,0,0,0,.24,0,.81.81,0,0,0,.78-.57,1,1,0,0,0,0-.24A.83.83,0,0,0,542.1,255.77Zm26.37,1.62a.78.78,0,0,0-.36-.08.82.82,0,0,0-.73.45.85.85,0,0,0-.09.38.8.8,0,0,0,.46.73,1.13,1.13,0,0,0,.35.09.86.86,0,0,0,.74-.46.77.77,0,0,0,.08-.35A.88.88,0,0,0,568.47,257.39Zm-27,.48a.91.91,0,0,0-.23,0,.8.8,0,0,0-.77.59.91.91,0,0,0,0,.23.83.83,0,0,0,.6.78.78.78,0,0,0,.22,0,.82.82,0,0,0,.78-.59.91.91,0,0,0,0-.23A.79.79,0,0,0,541.46,257.87Zm26,1.48a.87.87,0,0,0-.41-.11.81.81,0,0,0-.8.81.82.82,0,0,0,.42.72.88.88,0,0,0,.4.11.84.84,0,0,0,.72-.42.86.86,0,0,0,.1-.38A.84.84,0,0,0,567.49,259.35ZM540.9,260l-.2,0a.8.8,0,0,0-.79.64,1.23,1.23,0,0,0,0,.19.8.8,0,0,0,.61.79c.07,0,.13,0,.2,0a.85.85,0,0,0,.81-.64.58.58,0,0,0,0-.19A.83.83,0,0,0,540.9,260Zm25.52,1.29a.8.8,0,0,0-.44-.13.81.81,0,0,0-.7.39h0a.84.84,0,0,0-.13.45.72.72,0,0,0,.39.66.73.73,0,0,0,.41.13.78.78,0,0,0,.7-.39.8.8,0,0,0,.13-.44A.76.76,0,0,0,566.42,261.25ZM541,262.75a.81.81,0,0,0-.64-.67l-.16,0a.82.82,0,0,0-.8.65.76.76,0,0,0,0,.15.82.82,0,0,0,.65.81.5.5,0,0,0,.17,0A.82.82,0,0,0,541,263a.76.76,0,0,0,0-.15A.61.61,0,0,0,541,262.75Zm24.23.33a.81.81,0,0,0-.45-.13.8.8,0,0,0-.68.37.81.81,0,0,0-.13.45.82.82,0,0,0,1.5.45.86.86,0,0,0,.14-.46A.81.81,0,0,0,565.26,263.08Zm-25,1.26-.07,0a.73.73,0,0,0-.25-.08l-.16,0a.79.79,0,0,0-.78.67.66.66,0,0,0,0,.14.8.8,0,0,0,.38.69l.07,0a.85.85,0,0,0,.24.09h.13a.81.81,0,0,0,.8-.68.74.74,0,0,0-.35-.81Zm23.76.55a.79.79,0,0,0-.46-.15.82.82,0,0,0-.67.35.8.8,0,0,0-.15.47.82.82,0,0,0,.34.66.74.74,0,0,0,.46.16.8.8,0,0,0,.68-.35.79.79,0,0,0,.15-.46A.83.83,0,0,0,564,264.89Zm-24.43,1.46h-.08a.93.93,0,0,0-.44.11.81.81,0,0,0-.4.59.49.49,0,0,0,0,.12.28.28,0,0,0,0,.09.81.81,0,0,0,.7.73h.11a.84.84,0,0,0,.81-.7s0-.07,0-.11A.85.85,0,0,0,539.61,266.35Zm23.17.31a.81.81,0,0,0-.5-.18.84.84,0,0,0-.66.33.82.82,0,0,0-.16.49.83.83,0,0,0,.31.65,1,1,0,0,0,.5.17.79.79,0,0,0,.64-.33h0a.78.78,0,0,0,.16-.49A.81.81,0,0,0,562.78,266.66Zm-1.36,1.72a.73.73,0,0,0-.5-.19.81.81,0,0,0-.63.3.78.78,0,0,0-.2.51.82.82,0,0,0,.31.63.76.76,0,0,0,.5.19.81.81,0,0,0,.63-.3.76.76,0,0,0,.2-.52A.77.77,0,0,0,561.42,268.38Zm-22.09.13h-.08a.82.82,0,0,0-.82.74v.08a.82.82,0,0,0,.74.82h.07a.86.86,0,0,0,.83-.74v-.07A.84.84,0,0,0,539.33,268.51ZM560,270a.84.84,0,0,0-.37-.2h-.15a.82.82,0,0,0-.62.3.78.78,0,0,0-.21.54.74.74,0,0,0,.28.59.73.73,0,0,0,.26.17.87.87,0,0,0,.28.05.83.83,0,0,0,.82-.81A.83.83,0,0,0,560,270Zm-20.9.65h-.07a.79.79,0,0,0-.78.77v0a.82.82,0,0,0,.76.83h.05a.83.83,0,0,0,.82-.78v-.05A.79.79,0,0,0,539.13,270.69Zm19.46,1a.82.82,0,0,0-.56-.23.83.83,0,0,0-.6.27.76.76,0,0,0-.21.54.88.88,0,0,0,.25.62.89.89,0,0,0,.57.21.82.82,0,0,0,.81-.81A.83.83,0,0,0,558.59,271.68ZM539,272.85a.83.83,0,0,0-.8.78v.05a.8.8,0,0,0,.8.81h0a.82.82,0,0,0,.81-.83A.84.84,0,0,0,539,272.85Zm18,.4a.75.75,0,0,0-.57-.25.79.79,0,0,0-.58.25.81.81,0,0,0-.23.57.85.85,0,0,0,.23.58.84.84,0,0,0,.59.24.72.72,0,0,0,.56-.24.79.79,0,0,0,.25-.57A.83.83,0,0,0,557.08,273.25Zm-1.55,1.52a.8.8,0,0,0-.59-.26.82.82,0,0,0-.82.82v.06a.82.82,0,0,0,.21.5.82.82,0,0,0,.61.26.77.77,0,0,0,.55-.22.82.82,0,0,0,.25-.54.13.13,0,0,0,0-.06A.81.81,0,0,0,555.53,274.77Zm-16.35.26h-.09a.82.82,0,0,0-.75.81v.08a.84.84,0,0,0,.81.74h.09a.85.85,0,0,0,.74-.82v-.07A.83.83,0,0,0,539.18,275Zm14.74,1.21a.8.8,0,0,0-.23-.19.71.71,0,0,0-.4-.11.8.8,0,0,0-.53.19.87.87,0,0,0-.28.63.76.76,0,0,0,.2.52.78.78,0,0,0,.61.31h.13a.89.89,0,0,0,.39-.19.81.81,0,0,0,.3-.63A.78.78,0,0,0,553.92,276.24Zm-13.61,1.57a.85.85,0,0,0-.84-.63h-.17a.85.85,0,0,0-.62.83.86.86,0,0,0,0,.16.84.84,0,0,0,.81.63.42.42,0,0,0,.17,0,.82.82,0,0,0,.65-.82A.81.81,0,0,0,540.31,277.81Zm11.93-.18a.78.78,0,0,0-.65-.33.77.77,0,0,0-.48.16.81.81,0,0,0-.34.66.82.82,0,0,0,.16.49.83.83,0,0,0,.65.33,1,1,0,0,0,.51-.17.82.82,0,0,0,.33-.64A.79.79,0,0,0,552.24,277.63Zm-1.75,1.29a.8.8,0,0,0-.68-.37.81.81,0,0,0-.82.82.78.78,0,0,0,.13.44.84.84,0,0,0,.7.37.75.75,0,0,0,.43-.13.77.77,0,0,0,.37-.67A.84.84,0,0,0,550.49,278.92Zm-9.53.72a.84.84,0,0,0-.73-.43.75.75,0,0,0-.38.1.84.84,0,0,0-.43.73.75.75,0,0,0,.1.38.81.81,0,0,0,.72.44.82.82,0,0,0,.39-.11.82.82,0,0,0,.33-1.11Zm7.7.46a.83.83,0,0,0-.73-.44.8.8,0,0,0-.81.82.75.75,0,0,0,.1.38.81.81,0,0,0,1.09.35.82.82,0,0,0,.45-.73A.75.75,0,0,0,548.66,280.1Zm-1.94,1a.8.8,0,0,0-.76-.53,1,1,0,0,0-.29.05.82.82,0,0,0-.53.77.92.92,0,0,0,.05.28.83.83,0,0,0,.77.54,1.7,1.7,0,0,0,.28,0,.85.85,0,0,0,.53-.79A.92.92,0,0,0,546.72,281.08Zm-4.65-.24a.72.72,0,0,0-.35-.08.84.84,0,0,0-.74.45.85.85,0,0,0-.08.35.88.88,0,0,0,.45.76,1,1,0,0,0,.37.07.78.78,0,0,0,.72-.44.75.75,0,0,0,.1-.38A.8.8,0,0,0,542.07,280.84Zm1.8.21h-.09a.82.82,0,0,0-.75.81V282a.83.83,0,0,0,.81.74h.09a.84.84,0,0,0,.74-.82v-.07A.83.83,0,0,0,543.87,281.05Z" style="fill:#fff"></path><path d="M570.05,241.18c.14,2.34-6.06,19.69-16.22,22.22-3.31.81-8.57-17-8.57-17l-.69-1.23-9.65-17.22,17.52-20.39,2.58-2.78s2.33,4.88,5.17,11c.13.28.27.56.41.87s.33.66.47,1c.44.9.88,1.83,1.3,2.77.32.71.64,1.4,1,2.15s.64,1.49,1,2.24C567.4,232.24,570,240.18,570.05,241.18Z" style="fill:#f7a9a0"></path><path d="M560.19,215.73a39.59,39.59,0,0,1-15.62,29.39l-9.65-17.22,17.52-20.39,2.58-2.78S557.35,209.61,560.19,215.73Z" style="fill:#263238"></path><path d="M562.11,205.1a7.19,7.19,0,0,1,1.27,2.55c1.11,4.2-1,8.38-3.44,11.64-2.67,3.47-6.33,6.57-7.75,10.83a7.25,7.25,0,0,0,0,5.15,6.7,6.7,0,0,0,4.37,3.44c1.91.64,4.32,1,5.56,2.78a5.67,5.67,0,0,1,.31,5.12c-1.53,4.22-6.25,6.24-9.16,9.38a22.65,22.65,0,0,0-5.83,12.12,22.06,22.06,0,0,0,1.86,12.48,21.55,21.55,0,0,0,3.38,5.24c1.54,1.75,3.44,3.13,5.06,4.8s2.88,3.6,2.71,5.86c-.12,1.75-3.91,7-11.47,9.28-.54.17-.21,1.13.4,1.16a27.26,27.26,0,0,0,3.5,0,30.49,30.49,0,0,0,24-14,31.76,31.76,0,0,0,4.75-14.57,51.38,51.38,0,0,1,.88-8.59,15.9,15.9,0,0,1,3.61-6.6c3.2-3.66,7.24-6.51,9.81-10.73A26.88,26.88,0,0,0,599.55,240a31.61,31.61,0,0,0-10-24.29C582.94,209.49,561.8,204.67,562.11,205.1Z" style="fill:#263238"></path><path d="M562.29,205.34a12.52,12.52,0,0,1,1.91,5.27,10.16,10.16,0,0,1-1,5c-1.58,3.5-4.43,6-7.16,8.62-2.57,2.43-5.16,5.14-5.9,8.72a8.33,8.33,0,0,0,.26,4.64,6.56,6.56,0,0,0,3.54,3.5c2.88,1.33,6.93,2.09,7.9,5.64s-2,6.54-4.16,8.81c-5.2,5.54-12.75,11.94-11.2,20.48.78,4.32,3.39,8.45,6.09,11.83,1.95,2.43,4.43,5.5,3.72,8.84,0,.13-.21.06-.18-.06.7-3.55-2.33-6.19-4.43-8.6a29.71,29.71,0,0,1-5.82-9.7,14.45,14.45,0,0,1,.75-10.93,33.59,33.59,0,0,1,7-9.24c1.39-1.42,2.82-2.81,4.17-4.27a12.35,12.35,0,0,0,3-4.5,4.22,4.22,0,0,0-1.59-4.76,21.9,21.9,0,0,0-5-2.37,8.57,8.57,0,0,1-3.89-2.92,7.81,7.81,0,0,1-1.24-3.77,12.22,12.22,0,0,1,2.84-8.4c2.66-3.38,6.36-5.77,8.95-9.19a12.27,12.27,0,0,0,2.66-6c.25-2.33-.67-4.34-1.59-6.4A.23.23,0,0,1,562.29,205.34Z" style="fill:#263238"></path><path d="M593.51,215.84c6.81,6.2,9.11,16,7.06,24.83a31.9,31.9,0,0,1-6.86,13.26c-3,3.59-6.63,6.84-8.85,11.05-2.46,4.65-1.93,9.82-2.16,14.9a28.37,28.37,0,0,1-3.14,11.75,30.23,30.23,0,0,1-17.64,14.86,29.64,29.64,0,0,1-2.91.76c-.13,0-.17-.17,0-.19a29.12,29.12,0,0,0,18.45-13.8,28.41,28.41,0,0,0,3.78-10.9c.59-4.76-.23-9.63,1-14.32,1.15-4.39,4.21-7.91,7.22-11.17,3.28-3.57,6.5-7.1,8.45-11.61,3.62-8.36,3-18.4-2.59-25.78-6.21-8.24-16.57-11.1-26.3-12.57l-3.9-.57c-.15,0-.14-.25,0-.23C575.06,207.11,585.82,208.84,593.51,215.84Z" style="fill:#263238"></path><path d="M564.3,200.09c1.5.41,3.1,2.06,3.07,3.11s-5.26,7.26-7.28,7.32-2.67-3.61-2.67-3.61Z" style="fill:#BA68C8"></path><path d="M501.8,191.38c-5.55,34.2,14.3,41.38,21.68,42.57,6.69,1.08,29.63,3.91,38.68-29.53s-5.09-46.83-20.27-50.11S507.35,157.19,501.8,191.38Z" style="fill:#f7a9a0"></path><path d="M507,186.48a23.78,23.78,0,0,0,2.39-.17,3.88,3.88,0,0,0,2.4-.63,1.24,1.24,0,0,0,.21-1.49,3.07,3.07,0,0,0-2.89-1.13,4.47,4.47,0,0,0-3,1.19A1.32,1.32,0,0,0,507,186.48Z" style="fill:#263238"></path><path d="M530.35,191.65c-.79-.21-1.49-.53-2.25-.81a3.86,3.86,0,0,1-2.14-1.27,1.23,1.23,0,0,1,.21-1.49,3.06,3.06,0,0,1,3.08-.29,4.52,4.52,0,0,1,2.57,2A1.31,1.31,0,0,1,530.35,191.65Z" style="fill:#263238"></path><path d="M524.5,197.14c0-.09.17.14.15.23-.46,2.32-.59,5,1.39,6.16.06,0,0,.16,0,.13C523.49,202.88,523.7,199.26,524.5,197.14Z" style="fill:#263238"></path><path d="M527,195.05c3.79.33,2.86,7.88-.66,7.58S523.8,194.77,527,195.05Z" style="fill:#263238"></path><path d="M528.41,195.63c.61.51,1.16,1.34,2,1.52s1.7-.5,2.4-1.19c.07-.07.13,0,.12.11-.16,1.45-.9,2.86-2.48,2.89s-2.3-1.39-2.48-2.89C527.89,195.79,528.17,195.42,528.41,195.63Z" style="fill:#263238"></path><path d="M511.55,195c0-.09-.19.09-.2.19-.2,2.35-.82,5-3,5.54-.07,0-.08.14,0,.14C511,200.83,511.74,197.29,511.55,195Z" style="fill:#263238"></path><path d="M509.74,192.34c-3.73-.72-4.9,6.81-1.44,7.48S512.88,193,509.74,192.34Z" style="fill:#263238"></path><path d="M508.1,192.59c-.66.31-1.36.94-2.08.88s-1.31-1-1.71-1.84c-.05-.09-.12,0-.13.06-.27,1.43,0,3,1.31,3.49s2.34-.64,2.91-2C508.5,192.91,508.36,192.47,508.1,192.59Z" style="fill:#263238"></path><path d="M522.39,216.39c-.6.5-1.22,1.22-2.08,1.22a6.07,6.07,0,0,1-2.48-.79.09.09,0,0,0-.12.12,3.2,3.2,0,0,0,2.89,1.51,2.52,2.52,0,0,0,2-1.94C522.66,216.38,522.48,216.31,522.39,216.39Z" style="fill:#263238"></path><path d="M513.77,206.61s-1,3.43-1.18,5.07c0,.16.37.29.92.39,0,0,0,0,.07,0a7.86,7.86,0,0,0,8-1.89c.14-.14-.05-.34-.21-.26a11.89,11.89,0,0,1-7.43,1.08c0-.47,1.84-5.81,1.58-5.87a14.26,14.26,0,0,0-3.85.34c1.78-7.19,4.7-14,6.37-21.23a.22.22,0,0,0-.41-.16c-3.57,7-5.81,15.19-7.84,22.57C509.51,207.58,513.07,206.8,513.77,206.61Z" style="fill:#263238"></path><path d="M514,211.84a9.19,9.19,0,0,0,3.19,3.42,4.21,4.21,0,0,0,2.47.56c1.87-.18,2.19-1.83,2.08-3.3a9.57,9.57,0,0,0-.45-2.29A12,12,0,0,1,514,211.84Z" style="fill:#263238"></path><path d="M517.18,215.26a4.21,4.21,0,0,0,2.47.56c1.87-.18,2.19-1.83,2.08-3.3C519.77,212.41,517.65,213.41,517.18,215.26Z" style="fill:#ff9cbd"></path><path d="M560,210.53a14.44,14.44,0,0,1-6.2-12.86,37.74,37.74,0,0,1-13.3-14.55c.12.75,1,6.16,1.54,8.9-21.34-7.49-25.55-25.35-25.55-25.35-8.22,6-10.35,10.35-11.73,12.46,0,0,1.92-13.51,10.24-21.47,10.18-9.74,21.43-5.86,21.43-5.86a31.42,31.42,0,0,1,28.9,14C577.22,183.55,560,210.53,560,210.53Z" style="fill:#263238"></path><path d="M525.91,185.81a41,41,0,0,0,10.63,5.88s.05,0,0-.05a34.9,34.9,0,0,1-14.63-12.24,33.19,33.19,0,0,1-3.72-7.35,22.94,22.94,0,0,1-1.63-8.83.17.17,0,0,0-.34,0,26.46,26.46,0,0,0,.41,8.92,24.12,24.12,0,0,0,3.76,8,27.84,27.84,0,0,0,5.5,5.66Z" style="fill:#263238"></path><path d="M560.18,217a7,7,0,0,1-1.63.3,5.48,5.48,0,0,1-1.64-.08,4.86,4.86,0,0,1-1.94-.79,5.77,5.77,0,0,1-1.23-1.11,6.82,6.82,0,0,1-1.17-2l2.6-9.08s8.36-10.22,13-7.17S566.08,215.33,560.18,217Z" style="fill:#f7a9a0"></path><path d="M566.15,201.37a.08.08,0,0,1,0,.15c-4.15,1.34-6.55,4.91-8.32,8.67,1.31-1.4,3-2.09,4.89-.52.1.08,0,.24-.13.21a3.58,3.58,0,0,0-4,1,17.67,17.67,0,0,0-2.14,3.06c-.21.34-.85.1-.68-.3l0-.09C556.07,208.36,560.6,201.47,566.15,201.37Z" style="fill:#263238"></path><path d="M559.8,215.54a1.6,1.6,0,1,1-1.11-2A1.6,1.6,0,0,1,559.8,215.54Z" style="fill:#fff"></path><path d="M563.27,213.37a1.13,1.13,0,1,1-2.18-.61,1.13,1.13,0,1,1,2.18.61Z" style="fill:#fff"></path></g><g id="freepik--character-1--inject-123"><polygon points="226.71 459.21 53.54 459.21 61.91 275.39 195.11 275.39 195.56 278.01 196.4 282.89 196.47 283.31 197.24 287.78 212.27 375.22 212.59 377.08 212.6 377.15 217.35 404.77 217.91 408.01 219.48 417.15 219.71 418.49 219.83 419.19 226.71 459.21" style="fill:#dbdbdb"></polygon><polygon points="76.89 275.39 69.09 459.21 53.54 459.21 61.91 275.39 76.89 275.39" style="fill:#c7c7c7"></polygon><path d="M340.09,459.21H114.8c-17-16.54-18.67-36.84-16.42-52.48A85.92,85.92,0,0,1,105.84,382l92.52-2.74.51,0,6.51-.19,1.67-.05s-.1,1.78-.15,4.38c0,2.05-.05,4.6,0,7.21.22,5.51.93,11.23,2.83,12.77.37.3,3.1.76,7.57,1.45,3.81.59,8.89,1.34,14.82,2.3,36.16,5.82,104.29,19.22,114.06,49.22a29.54,29.54,0,0,1,.78,2.92H340.4" style="fill:#263238"></path><path d="M138.31,459.21H135.1A46.76,46.76,0,0,1,111.8,428c-.19-.76-.36-1.54-.51-2.31A79.4,79.4,0,0,1,110,406.93a131.66,131.66,0,0,1,2-18.05c0-.21.36-.14.32.07-.51,2.68-1,5.4-1.27,8.12-.31,3.26-.51,6.56-.54,9.86a78.84,78.84,0,0,0,1.77,18.52c.18.8.37,1.59.58,2.38s.49,1.77.77,2.64a47.08,47.08,0,0,0,19.9,26.06C135.08,457.5,136.68,458.4,138.31,459.21Z" style="fill:#37474f"></path><path d="M340.09,459.21H87.94c-6.38-18.4-5.16-37.88-2.34-52.78a133.11,133.11,0,0,1,7.26-25.29L198.78,378l.66,0,6.2-.18s-.08.43-.26,1.22a238.44,238.44,0,0,1-7,25.63c-.36,1.06-.73,2.13-1.12,3.21-.57,1.6-1.16,3.21-1.79,4.82l-.18.47a1.22,1.22,0,0,0-.07.17l2.63.51.39.07c4,.78,11.56,2.33,21.51,4.6,27.67,6.33,73.44,18.26,108.81,34.78l.27.13c4,1.87,7.9,3.81,11.61,5.81" style="fill:#263238"></path><path d="M215,405.58a54.57,54.57,0,0,0-9.56,3.06c-3.24,1.24-6.43,2.64-9.54,4.16a191.82,191.82,0,0,0-17.84,10.09.16.16,0,0,0,.17.27c6.1-3.17,12.41-6,18.72-8.74l9.11-3.92a98.33,98.33,0,0,0,9.21-4.08C215.68,406.21,215.47,405.5,215,405.58Z" style="fill:#37474f"></path><path d="M208.26,377.74c-1.29,5.15-2.43,10.34-3.9,15.44-.67,2.34-1.34,4.72-2.23,7-.74,1.92-1.87,4.11-4.09,4.54-2.56.49-3.29-1.7-3.08-3.81.23-2.36.84-4.72,1.3-7,.54-2.67,1.08-5.34,1.56-8,.25-1.35.5-2.69.73-4,0-.34.31-2.91.49-3.64,0,.06.06.12.14.11l.09,0a.17.17,0,0,0,.16-.13.35.35,0,0,0-.13-.39.21.21,0,0,0-.24,0c-.49.27-.52.94-.68,1.43-.41,1.3-.84,2.6-1.22,3.92-.71,2.45-1.4,4.92-2,7.4s-1.23,5-1.84,7.44c-.46,1.86-1,3.81-.5,5.72a4.34,4.34,0,0,0,4,3.29c-.08.17-.19.33-.27.51-.22.5-.39,1-.58,1.56s-.37,1.07-.52,1.61a4.34,4.34,0,0,0-.15.8c0,.3,0,.59,0,.89a.43.43,0,0,0,.8.28c.13-.26.33-.46.48-.72a4.34,4.34,0,0,0,.36-.86c.18-.51.33-1,.46-1.55s.29-1.05.39-1.57c.05-.32.06-.64.09-.95a6,6,0,0,0,3-1.13,10,10,0,0,0,3.08-4.71c.77-2.14,1.37-4.36,2-6.56A96.52,96.52,0,0,0,209.19,378,.48.48,0,0,0,208.26,377.74Z" style="fill:#37474f"></path><path d="M141.19,390.34c-.47,2.56-.77,5.14-1.35,7.67s-1.25,5-2.07,7.37a26.17,26.17,0,0,1-3.14,6.63,24.57,24.57,0,0,1-5,5.09,42.92,42.92,0,0,1-12.1,6.74,60,60,0,0,1-6.71,2c-1.19.26-2.39.47-3.59.62a7.74,7.74,0,0,0-2.9.67.59.59,0,0,0,.06,1c1.54.75,3.7.33,5.35.16a38.34,38.34,0,0,0,5.71-1,41.71,41.71,0,0,0,10.8-4.55,34,34,0,0,0,9-7.39,25.53,25.53,0,0,0,4.83-10.58,52.33,52.33,0,0,0,1.57-14.37A.25.25,0,0,0,141.19,390.34Z" style="fill:#37474f"></path><path d="M103.27,459.21h-1.14a85.14,85.14,0,0,1-6-24.63,149.22,149.22,0,0,1,.25-27.88c.57-6.51,1.37-13,2.12-19.47,0-.2.34-.13.31.07-.47,3.93-1,7.86-1.35,11.8q-.37,3.75-.66,7.61C95.59,424.25,96.34,443.18,103.27,459.21Z" style="fill:#37474f"></path><path d="M340.09,459.21h-1.4a489.14,489.14,0,0,0-48.24-20.42,465.38,465.38,0,0,0-60.12-17.46q-5.24-1.14-10.5-2.14c-8-1.54-16.06-2.89-24.12-4.22h0c-.77-.13-.56-1.45.22-1.37s1.28.14,1.92.23a2.12,2.12,0,0,1,.44.05c7.1.83,14.18,1.95,21.23,3.28,12.79,2.41,25.47,5.55,37.93,9.07a429.7,429.7,0,0,1,59.37,21.5q5.93,2.67,11.74,5.55l.27.13Q334.48,456.22,340.09,459.21Z" style="fill:#37474f"></path><path d="M195.62,263c13.58,40.39,22.31,80.61,38.61,103.65,7.5,10.6,23.4,9.82,28.72,10.14,14.61.88,68.07-63,70.49-65.23,6-5.47-36.13-49.83-43.58-45.41-2,1.21-28.76,39-32.83,39.19-4.24.17-17.18-26.51-41-57.18C197.92,224.83,188.94,243.1,195.62,263Z" style="fill: rgb(235, 148, 129);"></path><path d="M329.57,314c3.08-2.11,27.9-16.35,37.1-29.88,4.87-7.17,16.05-28.38,12.06-31.89-3.64-3.2-8.13,1.86-8.13,1.86s4.84-9.53-.28-13.92-12.24,4.53-12.24,4.53,4.25-10.15-1.16-14.17-11.08,6.17-11.08,6.17,4.32-9.1-1.53-10.53c-7-1.73-13.12,15.94-19.83,22.8-1.52,1.56-33.12,29.37-33.12,29.37Z" style="fill: rgb(235, 148, 129);"></path><path d="M345.45,236.67c-4.51,13-8.72,17.89-19.29,26.34-.21.16,0,.51.22.35,11.11-7.32,17.28-12.71,19.71-26.5C346.21,236.19,345.66,236.06,345.45,236.67Z" style="fill:#263238"></path><path d="M357.68,244.63c-5.85,13.08-10.38,18.43-20.8,28.09-.15.14.07.4.23.28,11-8.62,17.05-14.14,21.19-28C358.48,244.4,358,244,357.68,244.63Z" style="fill:#263238"></path><path d="M370.08,254.52c-6.59,12.25-11.29,18.34-22.62,26.42a.25.25,0,0,0,.27.43c12.35-7.11,18.28-14.67,22.7-26.61C370.73,253.94,370.49,253.75,370.08,254.52Z" style="fill:#263238"></path><path d="M377,171.72c-16.14,56.21-21,73.26-36.15,68.92s-10.18-21.38,6-77.59Z" style="fill:#ebebeb"></path><path d="M377,171.72c-3.81,13.42-7.49,26.89-11.81,40.18-1.08,3.31-2.21,6.62-3.46,9.88a82.68,82.68,0,0,1-4.24,9.59c-1.67,3-3.58,6.13-6.5,8.21a10.23,10.23,0,0,1-4.94,1.87,16,16,0,0,1-10-2.86,10.18,10.18,0,0,1-3.21-4.21c-1.38-3.31-1.38-6.95-1.17-10.42a84.25,84.25,0,0,1,1.5-10.38c.67-3.43,1.47-6.83,2.31-10.22,3.41-13.55,7.38-26.93,11.23-40.35l0-.13.13,0Zm0,0-30.22-8.54.16-.1c-3.8,13.43-7.73,26.83-11.09,40.38-.82,3.38-1.61,6.78-2.27,10.2A82.27,82.27,0,0,0,332.09,224c-.2,3.44-.19,7,1.12,10.21a9.77,9.77,0,0,0,3.05,4,14,14,0,0,0,4.62,2.21A14.22,14.22,0,0,0,346,241a9.75,9.75,0,0,0,4.75-1.78c2.82-2,4.74-5,6.4-8.05a83.79,83.79,0,0,0,4.25-9.53c1.26-3.25,2.4-6.55,3.49-9.86,2.2-6.62,4.18-13.32,6.19-20Z" style="fill:#263238"></path><rect x="331.85" y="228.24" width="4.43" height="71.98" transform="translate(85.91 -81.94) rotate(16.02)" style="fill:#ebebeb"></rect><polygon points="346.11 311.26 298.89 297.7 324.52 297.44 346.11 311.26" style="fill:#ebebeb"></polygon><path d="M342.14,236c8.45,2.23,13.8-8.41,24.26-40,0,0-6.94.75-12,4.11-4.36,2.88-8.93,4.28-13-3.26C341.41,196.84,328.47,232.39,342.14,236Z" style="fill:#BA68C8"></path><path d="M287.72,268.92s11.71-15.63,17.89-20.31,35.61-13.63,37.9-7.38c3,8.06-13,16.58-21.37,19.73,0,0,6.87,18.65-3.27,27.25S287.72,268.92,287.72,268.92Z" style="fill: rgb(235, 148, 129);"></path><path d="M343.6,243.71c-2.6,9.3-13.85,12.73-21.74,16.39a.8.8,0,0,0-.29,1.28c2.36,8,3.36,20-2.16,26.87a.2.2,0,0,0,.29.28c6.92-6.57,6.9-18.43,3.76-27,8.15-3.63,19.28-7.56,20.23-17.76A0,0,0,1,0,343.6,243.71Z" style="fill:#263238"></path><path d="M276.49,276.45l48.38,49.21s-45.11,52.13-57.31,53.3c-9.49.91-26.15-3-31-7.19-17.88-15.33-35.19-83.62-42-108.54-6.4-23.38,2.42-38.75,21.75-16.42s37.13,56.59,39.44,56C256.46,302.64,276.49,276.45,276.49,276.45Z" style="fill:#455a64"></path><path d="M289.47,313.94c-3.45-3.84-6.9-7.69-10.31-11.57s-7-7.65-10.1-11.75c-.14-.19.12-.47.3-.31,3.7,3.34,7.05,7.13,10.49,10.74q5.46,5.73,10.86,11.53c7.14,7.64,13.93,15.54,20.61,23.56.16.2-.14.42-.31.24C303.65,329.07,296.42,321.66,289.47,313.94Z" style="fill:#263238"></path><path d="M270.87,377.85a9.8,9.8,0,0,1-3.31,1.11c-9.49.91-26.15-3-31-7.19-17.87-15.33-35.19-83.62-42-108.54-4.67-17.05-1.24-29.84,8.46-26.85Z" style="fill:#37474f"></path><path d="M231.87,408.11s-151.4-1-152-2,46.27-156,101-173.35c8.68-2.75,27.87-4,35.71,8.09C234.88,269.06,234.19,406.32,231.87,408.11Z" style="fill:#455a64"></path><path d="M205.22,257.73c-8.31.23-19.38-14.71-22.71-25.63-.22-.75,2.28-7.63,4.93-16.12,1.59-5.16,3.24-10.95,4.36-16.33l32.08,15.24s-5.67,10.6-7.57,20a11.93,11.93,0,0,0-.23,2.25c0,.11,0,.24,0,.38C215.86,241.87,213.25,257.51,205.22,257.73Z" style="fill: rgb(235, 148, 129);"></path><path d="M194,200.67c-.45,8-.24,32,18.55,36.33a23.25,23.25,0,0,0,3.52.52c0-.14,0-.25,0-.37a11.36,11.36,0,0,1,.22-2.26c1.89-9.4,7.58-20,7.58-20Z" style="fill:#263238"></path><path d="M189.34,163c-4.67,11.91-1,47.66,7.1,56.19,11.69,12.37,32.2,15.06,43.06.69,10.52-13.92,4.87-60.42-4.27-68.32C221.78,139.88,196.24,145.36,189.34,163Z" style="fill: rgb(235, 148, 129);"></path><path d="M222.87,187.67c0-.08-.17.14-.16.24.38,2.37.4,5.16-1.66,6.22-.06,0,0,.15,0,.13C223.68,193.56,223.6,189.87,222.87,187.67Z" style="fill:#263238"></path><path d="M220.43,185.45c-3.87.19-3.21,7.92.37,7.74S223.68,185.29,220.43,185.45Z" style="fill:#263238"></path><path d="M236.94,186.45c0-.09.19.1.2.2.13,2.4.68,5.13,2.91,5.74.07,0,.07.14,0,.13C237.37,192.38,236.67,188.75,236.94,186.45Z" style="fill:#263238"></path><path d="M238.86,183.77c3.83-.62,4.79,7.08,1.24,7.65S235.65,184.29,238.86,183.77Z" style="fill:#263238"></path><path d="M217.08,182.17a28,28,0,0,0,2.9-1.31,5.12,5.12,0,0,0,2.71-1.9,1.65,1.65,0,0,0-.43-2c-1.25-.93-2.76-.64-4.12-.07a6,6,0,0,0-3.22,2.87A1.75,1.75,0,0,0,217.08,182.17Z" style="fill:#263238"></path><path d="M241.52,179.62a27.84,27.84,0,0,1-3.14-.54,5.16,5.16,0,0,1-3.1-1.15,1.67,1.67,0,0,1-.08-2c1-1.21,2.52-1.31,4-1.1a6,6,0,0,1,3.83,2A1.76,1.76,0,0,1,241.52,179.62Z" style="fill:#263238"></path><path d="M222.14,209.05c.51.62,1,1.46,1.85,1.63a6.42,6.42,0,0,0,2.64-.32.08.08,0,0,1,.09.13,3.23,3.23,0,0,1-3.18,1,2.54,2.54,0,0,1-1.64-2.32C221.88,209,222.06,209,222.14,209.05Z" style="fill:#263238"></path><path d="M224.57,201.91a8.18,8.18,0,0,0,5.75,3.16,10.45,10.45,0,0,0,3-.11c.19,0,.88-.19,1.07-.24a.59.59,0,0,0,.43-.58v0l-.59-5.1c.7.28,4.27,1.53,4.13.57-1.15-7.93-2.44-16.76-5.26-24.41a.23.23,0,0,0-.44.1c.81,7.67,3,15.14,3.9,22.84a13.8,13.8,0,0,0-3.95-.84c-.14,0,.89,6.24.88,6.29-3.07.66-5.48-.07-8.67-1.9C224.58,201.55,224.41,201.73,224.57,201.91Z" style="fill:#263238"></path><path d="M232.06,204a9.6,9.6,0,0,1-3.61,3.27,4.42,4.42,0,0,1-2.61.36c-1.93-.35-2.11-2.09-1.88-3.61a10.37,10.37,0,0,1,.68-2.34A12.48,12.48,0,0,0,232.06,204Z" style="fill:#263238"></path><path d="M228.45,207.25a4.42,4.42,0,0,1-2.61.36c-1.93-.35-2.11-2.09-1.88-3.61C226,204.06,228.13,205.28,228.45,207.25Z" style="fill:#ff9cbd"></path><path d="M188.92,199.65s-6.48-28.64-.82-42,23.49-14.41,32.06-13.85,15.8,6.26,17.43,8.53c2.94,4.11,4,12.42,4,12.42s-2.6-7-4.27-8.15-2.89,3.6-5.9,3.94-7.78-4-13.6-4.1-13.51,6.89-14.62,10.64.26,17.59-2.4,21.82S188.92,199.65,188.92,199.65Z" style="fill:#263238"></path><path d="M194.83,192s-7.33-11.87-12.67-9.33-.29,19.44,5.66,22.05a6.18,6.18,0,0,0,8.47-2.84Z" style="fill: rgb(235, 148, 129);"></path><path d="M183.73,187.5c-.1,0-.13.12,0,.16,4.16,2,6.18,6.05,7.51,10.24-1.17-1.65-2.85-2.61-5-1.22-.12.07,0,.25.1.23a3.81,3.81,0,0,1,4.11,1.57,18.13,18.13,0,0,1,1.81,3.5c.18.39.88.23.76-.22l0-.1C193.32,196.23,189.53,188.38,183.73,187.5Z" style="fill:#263238"></path><path d="M216.1,235.66,207,255.41l-23.77-26.74-7.5,7.83s22.48,41.72,22.72,39.89l9.17-16.95L219,272.12l.53-30.38Z" style="fill:#ebebeb"></path><path d="M220.13,257.11c-.08-5,0-10.07-.33-15.08,0-.18-.29-.27-.34-.07-1.24,4.79-.84,24-1.09,28.56l-.05,0c-.47-.55-10.58-11.19-10.69-11-1.94,2.67-8.66,15-9.13,16.14-3.56-6.62-17.24-30.75-21.52-37.06a.17.17,0,0,0-.31.16c3.08,7,21.16,39.43,21.47,39.36.2.17,8.54-15,9.59-17.93,1.69,2.29,11.83,14.23,11.91,13.49A159.17,159.17,0,0,0,220.13,257.11Z" style="fill:#263238"></path><path d="M159,272.25c10.66,50.4,17.36,90.45,31.9,99.34,11.72,7.18,125.83,5.33,129.12,5.46,8.15.26,8.06-52.15,2.09-58.51-1.37-1.45-101.53,4-104.59,1.28s-16.4-27.77-36.81-57.16C166.7,242.55,153.5,246.44,159,272.25Z" style="fill: rgb(235, 148, 129);"></path><path d="M309.46,319.65s21.89-6.68,36.42-10.39c8.1-2.06,22.3-4.38,28.93-3.2,9.92,1.75,50.23,15.39,47,25.18-2.9,8.85-36-7.24-36-7.24s34.86,13.3,29.4,23.34-40.38-13.08-40.38-13.08,35.51,14.46,28.23,23.94c-5.5,7.17-38.33-12-38.33-12s30.43,12.64,25.09,20.25c-5.9,8.41-37.33-7.39-37.33-7.39-16.84,17.1-34.06,21.5-44.64,17.66C305.44,375.84,309.46,319.65,309.46,319.65Z" style="fill: rgb(235, 148, 129);"></path><path d="M375.72,319.32c26.45,7.84,36.93,19.74,36.59,19.48-8.12-6.13-22.37-12.71-26.38-14.49s-6.28-3.07-10.29-4.84C375.54,319.42,375.62,319.29,375.72,319.32Z" style="fill:#263238"></path><path d="M367.24,332.92c12.77,2.9,26.12,10.29,30.31,13.56.33.26.14.34-.25.15-5-2.4-25-11.45-30.12-13.59C367.1,333,367.16,332.9,367.24,332.92Z" style="fill:#263238"></path><path d="M359.15,344.14c11.22,3.46,15.88,6.13,23.14,11.19.35.24,0,.36-.34.16-7.62-3.86-13.57-6.94-22.9-11.06C358.91,344.36,359,344.09,359.15,344.14Z" style="fill:#263238"></path><path d="M321.5,316.06c2.66-1,5.36-1.95,8.07-2.83s5.45-1.68,8.2-2.46,5.51-1.46,8.3-2.06a53.81,53.81,0,0,1,8.47-1.29c-1.4.28-2.79.58-4.16.95s-2.75.71-4.12,1.09L338,311.73c-2.74.75-5.48,1.52-8.24,2.23S324.28,315.41,321.5,316.06Z" style="fill:#263238"></path><path d="M302.36,311.82l-3.14,69.78s-89.42.32-108.36-10c-15.46-8.43-29.77-72-33.82-98.68-3.67-24.15,6.42-38.45,23.37-14,18.33,26.48,37.12,57.91,39.21,59.11S302.36,311.82,302.36,311.82Z" style="fill:#455a64"></path><path d="M285,346.78q.34-7.53.77-15c.28-5,.37-10.07,1-15,0-.22.41-.26.43,0,.29,4.82,0,9.73,0,14.57q-.12,7.69-.34,15.4c-.27,10.15-1,20.26-1.84,30.38,0,.25-.39.2-.39,0C284.54,366.92,284.58,356.87,285,346.78Z" style="fill:#263238"></path><path d="M160.62,292.55c1.93,7.9,4,15.77,6.2,23.58s4.56,15.6,7.24,23.25c1.34,3.83,2.79,7.61,4.31,11.36a100.89,100.89,0,0,0,5.18,10.91,42,42,0,0,0,3.25,5,14.93,14.93,0,0,0,4.13,3.9,48.61,48.61,0,0,0,11.3,3.7,211,211,0,0,0,24,3.61c8.07.81,16.18,1.34,24.29,1.8s16.22.84,24.34,1.11,16.25.53,24.38.73l-.1.1.26-4.32-.05,4.33v.09h-.11c-8.13.13-16.26.21-24.4.13s-16.27-.25-24.4-.56-16.27-.85-24.38-1.59c-4.06-.38-8.12-.82-12.16-1.38s-8.09-1.19-12.09-2.13a50.16,50.16,0,0,1-11.79-4,16.7,16.7,0,0,1-4.66-4.42,44.74,44.74,0,0,1-3.36-5.24,134.35,134.35,0,0,1-9.33-22.67A402.73,402.73,0,0,1,160.62,292.55Z" style="fill:#263238"></path><path d="M159.85,298.73c.82,1.39,1.49,2.76,2.19,4.14l1,2.09c.33.7.67,1.4.95,2.17a12,12,0,0,1-2.86-3.81,14,14,0,0,1-.88-2.22A9.07,9.07,0,0,1,159.85,298.73Z" style="fill:#263238"></path><path d="M302.08,318l.09-6.15.21.2q-17.2,2.19-34.45,4c-11.5,1.16-23,2.22-34.56,3-2.89.17-5.78.32-8.7.39a35.86,35.86,0,0,1-4.48-.11,3.36,3.36,0,0,1-.73-.17,1.87,1.87,0,0,1-.3-.14,1.59,1.59,0,0,1-.24-.2l-.06-.06-.21-.26c-.25-.32-.46-.61-.67-.91l-1.25-1.8q-4.83-7.23-9.49-14.52-9.39-14.58-18.32-29.44,9.95,14.2,19.63,28.57c3.26,4.77,6.45,9.59,9.75,14.31l1.24,1.76.61.83.14.16,0,0-.14-.11s-.07,0-.05,0a1.48,1.48,0,0,0,.32.06,33.86,33.86,0,0,0,4.18.07c2.86-.07,5.74-.24,8.61-.43,5.76-.34,11.52-.78,17.27-1.24l17.27-1.36,34.56-2.71h.22v.21Z" style="fill:#263238"></path><path d="M195.56,278a8.53,8.53,0,0,1,1.6,2,13.21,13.21,0,0,1,1.12,2.3,12.14,12.14,0,0,1,.82,5c-.35-.79-.61-1.57-.9-2.35l-.85-2.32c-.28-.77-.59-1.53-.88-2.3Z" style="fill:#263238"></path></g><g id="freepik--Bottle--inject-123"><path d="M269.19,379.09h-39.9V306.7c0-6.69,14.24-28.17,14.24-32V237.06h11.41v37.67c0,3.8,14.25,25.28,14.25,32Z" style="fill:#263238"></path><rect x="241.19" y="326.88" width="28" height="38.86" style="fill:#BA68C8"></rect><rect x="244.78" y="232.38" width="8.92" height="4.68" style="fill:#BA68C8"></rect><rect x="244.78" y="232.38" width="8.92" height="4.68" style="opacity:0.2"></rect></g><g id="freepik--Table--inject-123"><polygon points="575.23 378.86 174.77 378.86 166.77 459.21 583.23 459.21 575.23 378.86" style="fill:#ebebeb"></polygon><path d="M211.85,459.21s4.73-37,8.31-38.13.18,38.13-.8,38.13Z" style="fill:#dbdbdb"></path><path d="M228.28,402.13c-3.46,1.14-.33,35.87.78,36.07S230.72,401.33,228.28,402.13Z" style="fill:#dbdbdb"></path><path d="M527.86,459.21s-6.51-57.42-3.73-60.08,10.55,60.08,9.48,60.08Z" style="fill:#dbdbdb"></path><path d="M527.7,389.39c-.87,1.16.73,12.85,1.86,15.09s3.62,8.09,4.35,7.26-2.25-7.42-2.67-11.34C530.64,394.74,529.79,386.6,527.7,389.39Z" style="fill:#dbdbdb"></path><path d="M341.9,459.21s1.09-30.41,3-32.5,2.7,32.5,2.7,32.5Z" style="fill:#dbdbdb"></path><path d="M354.54,459.21s-3.27-52-.36-53.64S361,459.21,361,459.21Z" style="fill:#dbdbdb"></path><path d="M461.65,459.21s-1.68-30.37-.75-31,5.81,31,5.81,31Z" style="fill:#dbdbdb"></path></g><g id="freepik--Candles--inject-123"><circle cx="303.71" cy="261.5" r="17.17" style="fill:#BA68C8;opacity:0.1"></circle><circle cx="303.71" cy="265.2" r="13.4" transform="translate(-97.16 308.48) rotate(-47.29)" style="fill:#BA68C8;opacity:0.1"></circle><path d="M308.23,271.93c-.51,5.75-4.51,6.68-4.51,6.68s-4-.93-4.52-6.68,4.52-12.43,4.52-12.43S308.75,266.19,308.23,271.93Z" style="fill:#BA68C8"></path><path d="M306.83,274c-.36,4-3.11,4.61-3.11,4.61S301,278,300.6,274s3.12-8.57,3.12-8.57S307.19,270,306.83,274Z" style="opacity:0.1"></path><rect x="303.25" y="278.31" width="0.93" height="5.04" style="fill:#a6a6a6"></rect><polygon points="309.79 356.75 297.65 356.75 297.99 281.91 309.44 281.91 309.79 356.75" style="fill:#ebebeb"></polygon><path d="M299.43,282.71c.73.18,1.45.32,2.16.48a17.61,17.61,0,0,0,2.15.29,10.85,10.85,0,0,0,2.13-.07,8,8,0,0,0,2.12-.7,5.28,5.28,0,0,1-2.06,1.54,5.64,5.64,0,0,1-2.21.31A7.49,7.49,0,0,1,299.43,282.71Z" style="fill:#c7c7c7"></path><rect x="285.47" y="356.75" width="36.5" height="2.76" style="fill:#BA68C8"></rect><rect x="290.76" y="376.1" width="25.9" height="2.76" style="fill:#BA68C8"></rect><polygon points="293.16 376.1 296.02 368.76 311.41 368.76 314.26 376.1 293.16 376.1" style="fill:#BA68C8"></polygon><polygon points="319.07 359.51 311.41 368.76 296.02 368.76 288.35 359.51 319.07 359.51" style="fill:#BA68C8"></polygon><polygon points="319.07 359.51 317.43 361.49 290.96 362.65 288.35 359.51 319.07 359.51" style="opacity:0.1"></polygon><polygon points="314.27 376.11 293.17 376.11 293.72 374.69 296.01 368.76 311.41 368.76 313.37 373.81 314.27 376.11" style="fill:#BA68C8"></polygon><polygon points="314.27 376.11 293.17 376.11 293.72 374.69 313.37 373.81 314.27 376.11" style="opacity:0.1"></polygon><path d="M296,368.76c2.57-.11,5.13-.08,7.7-.12s5.13,0,7.7.12c-2.57.11-5.14.08-7.7.13S298.58,368.87,296,368.76Z" style="opacity:0.1"></path><circle cx="446.29" cy="261.5" r="17.17" style="fill:#BA68C8;opacity:0.1"></circle><circle cx="446.29" cy="265.2" r="13.4" transform="translate(113.29 663.47) rotate(-80.82)" style="fill:#BA68C8;opacity:0.1"></circle><path d="M450.81,271.93c-.52,5.75-4.52,6.68-4.52,6.68s-4-.93-4.52-6.68,4.52-12.43,4.52-12.43S451.33,266.19,450.81,271.93Z" style="fill:#BA68C8"></path><path d="M449.41,274c-.36,4-3.12,4.61-3.12,4.61s-2.75-.65-3.12-4.61,3.12-8.57,3.12-8.57S449.76,270,449.41,274Z" style="opacity:0.1"></path><rect x="445.82" y="278.31" width="0.93" height="5.04" style="fill:#a6a6a6"></rect><polygon points="452.36 356.75 440.22 356.75 440.56 281.91 452.01 281.91 452.36 356.75" style="fill:#ebebeb"></polygon><path d="M442,282.71c.72.18,1.44.32,2.16.48a17.45,17.45,0,0,0,2.14.29,10.85,10.85,0,0,0,2.13-.07,8.17,8.17,0,0,0,2.13-.7,5.24,5.24,0,0,1-2.07,1.54,5.62,5.62,0,0,1-2.21.31A7.44,7.44,0,0,1,442,282.71Z" style="fill:#c7c7c7"></path><rect x="428.04" y="356.75" width="36.5" height="2.76" style="fill:#BA68C8"></rect><rect x="433.33" y="376.1" width="25.9" height="2.76" style="fill:#BA68C8"></rect><polygon points="435.74 376.1 438.59 368.76 453.98 368.76 456.84 376.1 435.74 376.1" style="fill:#BA68C8"></polygon><polygon points="461.65 359.51 453.98 368.76 438.59 368.76 430.93 359.51 461.65 359.51" style="fill:#BA68C8"></polygon><polygon points="461.64 359.51 460 361.49 433.54 362.65 430.92 359.51 461.64 359.51" style="opacity:0.1"></polygon><polygon points="456.84 376.11 435.74 376.11 436.29 374.69 438.58 368.76 453.98 368.76 455.94 373.81 456.84 376.11" style="fill:#BA68C8"></polygon><polygon points="456.84 376.11 435.74 376.11 436.29 374.69 455.94 373.81 456.84 376.11" style="opacity:0.1"></polygon><path d="M438.58,368.76c2.57-.11,5.14-.08,7.7-.12s5.13,0,7.7.12c-2.57.11-5.13.08-7.7.13S441.15,368.87,438.58,368.76Z" style="opacity:0.1"></path></g></svg>